<svg width="304" height="182" xmlns="http://www.w3.org/2000/svg" xmlns:xlink="http://www.w3.org/1999/xlink" xml:space="preserve" overflow="hidden"><g transform="translate(-176 -232)"><g><g><g><g><path d="M85.9253 66.0352C85.9253 69.7148 86.3231 72.6983 87.0192 74.8863 87.8148 77.0742 88.8093 79.461 90.2016 82.0467 90.6989 82.8423 90.8978 83.6379 90.8978 84.3341 90.8978 85.3286 90.3011 86.3231 89.0082 87.3176L82.7429 91.4945C81.8478 92.0912 80.9527 92.3896 80.1571 92.3896 79.1626 92.3896 78.1681 91.8923 77.1736 90.9973 75.7813 89.5055 74.5879 87.9143 73.5934 86.3231 72.5989 84.6324 71.6044 82.7429 70.5104 80.4555 62.7533 89.6049 53.0071 94.1797 41.272 94.1797 32.9181 94.1797 26.2549 91.7929 21.3819 87.0192 16.5088 82.2456 14.0225 75.8808 14.0225 67.9247 14.0225 59.4714 17.006 52.6093 23.0725 47.4379 29.139 42.2665 37.1945 39.6808 47.4379 39.6808 50.8192 39.6808 54.3 39.9791 57.9797 40.4764 61.6593 40.9736 65.4385 41.7692 69.4165 42.6643L69.4165 35.4044C69.4165 27.8462 67.8253 22.5753 64.7423 19.4923 61.5599 16.4093 56.1896 14.9176 48.5319 14.9176 45.0511 14.9176 41.4709 15.3154 37.7912 16.2104 34.1115 17.1055 30.5313 18.1994 27.0505 19.5918 25.4593 20.2879 24.2659 20.6857 23.5698 20.8846 22.8736 21.0835 22.3764 21.183 21.9786 21.183 20.5863 21.183 19.8901 20.1885 19.8901 18.1L19.8901 13.2269C19.8901 11.6357 20.089 10.4423 20.5863 9.74615 21.0835 9.05 21.9786 8.35385 23.3709 7.65769 26.8516 5.86758 31.0286 4.37582 35.9016 3.18242 40.7747 1.88956 45.9462 1.29286 51.4159 1.29286 63.2505 1.29286 71.9027 3.97802 77.472 9.34835 82.9418 14.7187 85.7264 22.8736 85.7264 33.8132L85.7264 66.0352ZM45.5484 81.1516C48.8302 81.1516 52.2115 80.5549 55.7918 79.3615 59.372 78.1681 62.5544 75.9802 65.2396 72.9967 66.8308 71.1071 68.0242 69.0187 68.6209 66.6319 69.2176 64.245 69.6154 61.361 69.6154 57.9797L69.6154 53.8027C66.7313 53.1066 63.6483 52.5099 60.4659 52.1121 57.2835 51.7143 54.2005 51.5154 51.1176 51.5154 44.4544 51.5154 39.5813 52.8082 36.2994 55.4934 33.0176 58.1786 31.4264 61.9577 31.4264 66.9302 31.4264 71.6044 32.6198 75.0852 35.106 77.472 37.4929 79.9582 40.9736 81.1516 45.5484 81.1516ZM125.407 91.8923C123.617 91.8923 122.424 91.5939 121.628 90.8978 120.832 90.3011 120.136 88.9088 119.54 87.0192L96.1687 10.144C95.572 8.15494 95.2736 6.86209 95.2736 6.16593 95.2736 4.57473 96.0692 3.67967 97.6604 3.67967L107.407 3.67967C109.296 3.67967 110.589 3.97802 111.285 4.67418 112.081 5.27088 112.677 6.66319 113.274 8.55275L129.982 74.389 145.496 8.55275C145.993 6.56374 146.59 5.27088 147.386 4.67418 148.181 4.07747 149.574 3.67967 151.364 3.67967L159.32 3.67967C161.209 3.67967 162.502 3.97802 163.298 4.67418 164.093 5.27088 164.79 6.66319 165.187 8.55275L180.901 75.1846 198.105 8.55275C198.702 6.56374 199.398 5.27088 200.094 4.67418 200.89 4.07747 202.183 3.67967 203.973 3.67967L213.222 3.67967C214.813 3.67967 215.708 4.47527 215.708 6.16593 215.708 6.66319 215.609 7.16044 215.509 7.75714 215.41 8.35385 215.211 9.14945 214.813 10.2434L190.846 87.1187C190.249 89.1077 189.553 90.4006 188.757 90.9973 187.962 91.5939 186.669 91.9918 184.978 91.9918L176.425 91.9918C174.536 91.9918 173.243 91.6934 172.447 90.9973 171.652 90.3011 170.955 89.0082 170.558 87.0192L155.143 22.8736 139.827 86.9198C139.33 88.9088 138.734 90.2016 137.938 90.8978 137.142 91.5939 135.75 91.8923 133.96 91.8923L125.407 91.8923ZM253.201 94.5775C248.03 94.5775 242.858 93.9808 237.886 92.7874 232.913 91.5939 229.035 90.3011 226.449 88.8093 224.858 87.9143 223.764 86.9198 223.366 86.0247 222.968 85.1297 222.769 84.1352 222.769 83.2401L222.769 78.1681C222.769 76.0797 223.565 75.0852 225.057 75.0852 225.653 75.0852 226.25 75.1846 226.847 75.3835 227.443 75.5824 228.338 75.9802 229.333 76.378 232.714 77.8698 236.394 79.0632 240.273 79.8588 244.251 80.6544 248.129 81.0522 252.107 81.0522 258.372 81.0522 263.246 79.9582 266.627 77.7703 270.008 75.5824 271.798 72.4 271.798 68.3225 271.798 65.5379 270.903 63.2505 269.113 61.361 267.323 59.4714 263.942 57.7808 259.069 56.1896L244.648 51.7143C237.388 49.4269 232.018 46.0456 228.736 41.5703 225.454 37.1945 223.764 32.3214 223.764 27.15 223.764 22.9731 224.659 19.2934 226.449 16.111 228.239 12.9286 230.626 10.144 233.609 7.95604 236.593 5.66868 239.974 3.97802 243.952 2.78462 247.93 1.59121 252.107 1.09396 256.483 1.09396 258.671 1.09396 260.958 1.19341 263.146 1.49176 265.434 1.79011 267.522 2.18791 269.61 2.58571 271.599 3.08297 273.489 3.58022 275.279 4.17692 277.069 4.77363 278.462 5.37033 279.456 5.96703 280.848 6.76264 281.843 7.55824 282.44 8.4533 283.036 9.2489 283.335 10.3429 283.335 11.7352L283.335 16.4093C283.335 18.4978 282.539 19.5918 281.047 19.5918 280.252 19.5918 278.959 19.194 277.268 18.3984 271.599 15.8126 265.235 14.5198 258.174 14.5198 252.505 14.5198 248.03 15.4148 244.947 17.3044 241.864 19.194 240.273 22.078 240.273 26.1555 240.273 28.9401 241.267 31.3269 243.256 33.2165 245.245 35.106 248.925 36.9956 254.196 38.6863L268.318 43.1615C275.478 45.4489 280.649 48.6313 283.732 52.7088 286.815 56.7863 288.307 61.4604 288.307 66.6319 288.307 70.9082 287.412 74.7868 285.721 78.1681 283.931 81.5494 281.544 84.533 278.462 86.9198 275.379 89.406 271.699 91.1962 267.423 92.489 262.947 93.8813 258.273 94.5775 253.201 94.5775Z" fill="#D9D9D9" fill-rule="nonzero" fill-opacity="1" transform="matrix(1.00552 0 0 1 176 233)"/><path d="M271.997 142.91C239.278 167.077 191.741 179.906 150.866 179.906 93.583 179.906 41.9681 158.723 2.98352 123.518-0.0994506 120.733 2.68516 116.954 6.36484 119.142 48.5319 143.607 100.545 158.425 154.347 158.425 190.647 158.425 230.526 150.866 267.224 135.352 272.693 132.866 277.368 138.932 271.997 142.91Z" fill="#D9D9D9" fill-rule="evenodd" fill-opacity="1" transform="matrix(1.00552 0 0 1 176 233)"/><path d="M285.622 127.396C281.445 122.026 257.975 124.81 247.334 126.103 244.151 126.501 243.654 123.716 246.538 121.628 265.235 108.501 295.965 112.28 299.545 116.655 303.125 121.131 298.551 151.861 281.047 166.58 278.362 168.867 275.776 167.674 276.97 164.69 280.948 154.844 289.799 132.667 285.622 127.396Z" fill="#D9D9D9" fill-rule="evenodd" fill-opacity="1" transform="matrix(1.00552 0 0 1 176 233)"/></g></g></g></g></g></svg>