<svg width="1059" height="168" xmlns="http://www.w3.org/2000/svg" xmlns:xlink="http://www.w3.org/1999/xlink" xml:space="preserve" overflow="hidden"><defs><clipPath id="clip0"><rect x="89" y="440" width="1059" height="168"/></clipPath><clipPath id="clip1"><rect x="89" y="440" width="1059" height="168"/></clipPath><clipPath id="clip2"><rect x="90" y="440" width="1058" height="167"/></clipPath><clipPath id="clip3"><rect x="90" y="440" width="1058" height="167"/></clipPath><clipPath id="clip4"><rect x="90" y="440" width="1058" height="167"/></clipPath><clipPath id="clip5"><rect x="91" y="440" width="177" height="167"/></clipPath></defs><g clip-path="url(#clip0)" transform="translate(-89 -440)"><g clip-path="url(#clip1)"><g clip-path="url(#clip2)"><g clip-path="url(#clip3)"><g clip-path="url(#clip4)"><path d="M281.663 171.676C306.44 171.676 328.126 159.288 336.698 134.274 338.362 129.265 335.975 125.937 331.218 125.937L321.922 125.937C317.636 125.937 314.778 127.836 312.862 131.887 305.482 146.428 295.229 151.656 282.369 151.656 259.491 151.656 245.438 135.686 245.438 109.009 245.438 82.332 259.978 66.3627 281.882 66.3627 295.228 66.3627 306.189 72.078 313.098 85.6603 315.249 89.7115 317.854 91.611 322.158 91.611L331.454 91.611C336.211 91.611 338.598 88.518 336.934 83.9793 326.931 56.8147 304.524 46.3422 281.663 46.3422 247.119 46.3422 221.383 71.8427 221.383 109.009 221.383 146.176 245.926 171.676 281.663 171.676ZM905.156 98.0491C908.248 77.7934 922.067 65.1692 940.893 65.1692 959.72 65.1692 973.773 78.0286 975.437 98.0491L905.156 98.0491ZM941.852 171.676C963.772 171.676 985.693 161.439 996.417 138.325 999.037 132.845 996.652 129.03 991.894 129.03L983.083 129.03C978.8 129.03 976.177 130.929 974.025 134.745 966.881 147.369 954.492 152.614 941.868 152.614 920.184 152.614 906.131 137.838 904.466 113.783L991.913 113.783C996.672 113.783 999.782 111.161 999.782 106.152 998.821 68.7496 974.529 46.359 940.927 46.359 907.324 46.359 880.647 70.666 880.647 109.026 880.647 147.386 906.618 171.693 941.885 171.693L941.852 171.676ZM803.188 112.119 811.054 112.119C815.812 112.119 818.433 109.497 819.157 104.487 823.696 72.2966 842.54 68.0268 862.577 68.985 866.862 69.1867 870.376 65.892 870.376 61.5887L870.376 54.2092C870.376 49.452 867.989 46.5775 863.232 46.3422 845.498 45.6698 829.68 51.7549 820.535 68.985 820.031 69.9263 818.619 69.6742 818.501 68.6152L817.021 55.6212C816.552 50.8641 813.929 48.477 809.155 48.477L773.182 48.477C768.979 48.477 765.55 51.8894 765.55 56.1087L765.55 60.1598C765.55 64.3623 768.962 67.7915 773.182 67.7915L787.957 67.7915C792.16 67.7915 795.589 71.2039 795.589 75.4232L795.589 104.487C795.589 108.689 799.002 112.119 803.221 112.119L803.188 112.119ZM771.03 169.306 845.598 169.306C850.356 169.306 853.23 166.449 853.23 161.674L853.23 157.623C853.23 152.866 850.372 149.992 845.598 149.992L826.536 149.992C821.779 149.992 818.904 147.134 818.904 142.36L818.904 129.248C818.904 124.491 816.047 121.617 811.273 121.617L803.171 121.617C798.413 121.617 795.539 124.474 795.539 129.248L795.539 142.36C795.539 147.117 792.681 149.992 787.907 149.992L770.996 149.992C766.24 149.992 763.365 152.849 763.365 157.623L763.365 161.674C763.365 166.432 766.223 169.306 770.996 169.306L771.03 169.306ZM655.95 98.066C659.044 77.8101 672.861 65.186 691.688 65.186 710.514 65.186 724.568 78.0455 726.232 98.066L655.95 98.066ZM692.646 171.693C714.566 171.693 736.486 161.456 747.21 138.342 749.833 132.862 747.446 129.046 742.689 129.046L733.881 129.046C729.594 129.046 726.972 130.946 724.82 134.762 717.676 147.386 705.286 152.63 692.662 152.63 670.978 152.63 656.925 137.854 655.261 113.8L742.706 113.8C747.462 113.8 750.573 111.178 750.573 106.169 749.614 68.7665 725.325 46.3758 691.721 46.3758 658.118 46.3758 631.442 70.6828 631.442 109.043 631.442 147.403 657.413 171.71 692.68 171.71L692.646 171.693ZM416.999 171.693C452.737 171.693 478.237 145.251 478.237 109.026 478.237 72.8008 452.737 46.359 416.999 46.359 381.261 46.359 355.761 73.2883 355.761 109.026 355.761 117.364 357.19 126.659 361.476 136.897 363.627 141.906 367.679 142.612 371.966 139.519L378.874 134.51C382.455 131.887 383.396 128.794 382.202 124.273 380.303 118.322 379.815 113.077 379.815 108.555 379.815 83.5423 394.826 66.3795 416.982 66.3795 439.137 66.3795 454.149 83.2901 454.149 109.026 454.149 134.762 439.373 151.673 417.453 151.673 409.821 151.673 402.677 150.244 394.103 143.805 390.523 140.948 387.195 140.477 383.379 143.334L378.134 147.15C373.847 150.244 373.377 154.53 377.411 157.875 389.801 167.877 404.089 171.693 416.965 171.693L416.999 171.693ZM508.478 169.306 516.345 169.306C520.547 169.306 523.977 165.893 523.977 161.674L523.977 104.739C523.977 80.6846 536.835 66.3795 556.857 66.3795 574.961 66.3795 585.45 78.2976 585.45 100.218L585.45 161.691C585.45 165.893 588.862 169.323 593.082 169.323L601.183 169.323C605.386 169.323 608.815 165.91 608.815 161.691L608.815 96.4018C608.815 64.2447 592.375 46.3758 564.505 46.3758 545.527 46.3758 534.315 54.1419 525.943 64.9506 525.304 65.7744 524.01 65.3204 524.01 64.2951L524.01 12.5377C523.959 8.31839 520.547 4.90599 516.345 4.90599L508.478 4.90599C504.275 4.90599 500.846 8.31839 500.846 12.5377L500.846 161.674C500.846 165.877 504.259 169.306 508.478 169.306Z" fill="#D9D9D9" fill-rule="nonzero" fill-opacity="1" transform="matrix(1.05589 0 0 1 91.1396 435.094)"/><g clip-path="url(#clip5)"><path d="M54.0418 104.222C58.5314 104.222 67.4623 103.976 79.807 98.893 94.1924 92.9703 122.813 82.2188 143.459 71.1752 157.898 63.451 164.228 53.2352 164.228 39.4779 164.228 20.3845 148.75 4.90599 129.657 4.90599L49.658 4.90599C22.2326 4.90599 0 27.1386 0 54.564 0 81.9893 20.8162 104.222 54.0418 104.222Z" fill="#D9D9D9" fill-rule="evenodd" fill-opacity="1" transform="matrix(1.05589 0 0 1 91.1396 435.094)"/><path d="M67.5724 138.418C67.5724 124.974 75.6656 112.854 88.0821 107.7L113.275 97.2446C138.758 86.6687 166.807 105.395 166.807 132.987 166.807 154.362 149.475 171.689 128.098 171.683L100.822 171.676C82.4572 171.671 67.5724 156.783 67.5724 138.418Z" fill="#D9D9D9" fill-rule="evenodd" fill-opacity="1" transform="matrix(1.05589 0 0 1 91.1396 435.094)"/><path d="M28.6264 110.768 28.6259 110.768C12.8162 110.768 0 123.584 0 139.394L0 143.102C0 158.911 12.8162 171.727 28.6259 171.727L28.6264 171.727C44.436 171.727 57.2523 158.911 57.2523 143.102L57.2523 139.394C57.2523 123.584 44.436 110.768 28.6264 110.768Z" fill="#D9D9D9" fill-rule="nonzero" fill-opacity="1" transform="matrix(1.05589 0 0 1 91.1396 435.094)"/></g></g></g></g></g></g></svg>