<svg xmlns="http://www.w3.org/2000/svg" xmlns:xlink="http://www.w3.org/1999/xlink" viewBox="0 0 93 27">
  <path d="M 43.651 15.38 L 39.151 6.05 L 37.191 6.05 L 37.191 19.221 L 39.232 19.221 L 39.232 10.779 L 43.217 19.221 L 44.085 19.221 L 48.078 10.779 L 48.078 19.221 L 50.111 19.221 L 50.111 6.05 L 48.15 6.05 Z M 56.484 10.998 C 57.273 10.998 57.852 11.245 58.219 11.739 C 58.48 12.09 58.648 12.589 58.726 13.23 L 53.931 13.23 C 54.03 12.659 54.218 12.193 54.497 11.835 C 54.93 11.277 55.593 10.998 56.484 10.998 Z M 58.974 9.786 C 58.266 9.308 57.406 9.069 56.394 9.069 C 55.436 9.069 54.593 9.288 53.864 9.727 C 53.135 10.166 52.566 10.783 52.156 11.579 C 51.747 12.375 51.542 13.312 51.542 14.392 C 51.542 15.392 51.751 16.276 52.17 17.044 C 52.589 17.813 53.171 18.413 53.918 18.846 C 54.665 19.279 55.533 19.496 56.521 19.496 C 57.46 19.496 58.32 19.249 59.1 18.755 C 59.88 18.261 60.457 17.569 60.83 16.678 L 58.68 16.02 C 58.469 16.477 58.169 16.826 57.781 17.067 C 57.392 17.308 56.93 17.428 56.394 17.428 C 55.563 17.428 54.93 17.154 54.497 16.605 C 54.156 16.175 53.952 15.603 53.878 14.895 L 60.939 14.895 C 61.023 13.712 60.894 12.685 60.55 11.812 C 60.207 10.94 59.681 10.265 58.974 9.787 Z M 69.219 15.974 C 69.053 16.462 68.791 16.842 68.433 17.113 C 68.074 17.384 67.603 17.52 67.019 17.52 C 66.452 17.52 65.986 17.377 65.618 17.09 C 65.251 16.803 64.978 16.415 64.8 15.924 C 64.623 15.433 64.534 14.886 64.534 14.282 C 64.534 13.685 64.624 13.14 64.805 12.649 C 64.986 12.159 65.266 11.768 65.645 11.479 C 66.025 11.189 66.507 11.044 67.091 11.044 C 67.645 11.044 68.097 11.18 68.446 11.451 C 68.796 11.723 69.053 12.101 69.219 12.585 C 69.384 13.07 69.467 13.636 69.467 14.282 C 69.467 14.922 69.384 15.486 69.219 15.974 Z M 69.196 9.824 C 69.164 9.799 69.134 9.774 69.101 9.75 C 68.472 9.296 67.693 9.069 66.766 9.069 C 65.844 9.069 65.043 9.296 64.362 9.75 C 63.682 10.204 63.156 10.823 62.786 11.607 C 62.415 12.39 62.23 13.282 62.23 14.282 C 62.23 15.27 62.414 16.157 62.781 16.944 C 63.149 17.73 63.667 18.352 64.335 18.81 C 65.004 19.267 65.787 19.496 66.684 19.496 C 67.636 19.496 68.434 19.267 69.079 18.81 C 69.215 18.712 69.345 18.607 69.467 18.493 L 69.467 19.221 L 71.392 19.221 L 71.392 6.05 L 69.196 6.05 Z M 77.641 10.998 C 78.43 10.998 79.008 11.245 79.375 11.739 C 79.636 12.09 79.804 12.589 79.883 13.23 L 75.087 13.23 C 75.186 12.659 75.374 12.193 75.653 11.835 C 76.087 11.277 76.749 10.998 77.641 10.998 Z M 80.13 9.786 C 79.422 9.308 78.562 9.069 77.55 9.069 C 76.592 9.069 75.749 9.288 75.02 9.727 C 74.291 10.166 73.722 10.783 73.313 11.579 C 72.903 12.375 72.698 13.312 72.698 14.392 C 72.698 15.392 72.907 16.276 73.326 17.044 C 73.745 17.813 74.328 18.413 75.075 18.846 C 75.821 19.279 76.689 19.496 77.677 19.496 C 78.616 19.496 79.476 19.249 80.256 18.755 C 81.036 18.261 81.613 17.569 81.987 16.678 L 79.836 16.02 C 79.625 16.477 79.326 16.826 78.937 17.067 C 78.549 17.308 78.086 17.428 77.55 17.428 C 76.719 17.428 76.087 17.154 75.653 16.605 C 75.313 16.175 75.108 15.603 75.034 14.895 L 82.095 14.895 C 82.179 13.712 82.05 12.685 81.707 11.812 C 81.363 10.94 80.838 10.265 80.13 9.787 Z M 90.039 16.55 C 89.617 17.136 88.973 17.428 88.105 17.428 C 87.268 17.428 86.634 17.143 86.204 16.573 C 85.773 16.003 85.557 15.239 85.557 14.282 C 85.557 13.66 85.648 13.113 85.829 12.64 C 86.009 12.168 86.288 11.799 86.664 11.533 C 87.041 11.268 87.521 11.136 88.105 11.136 C 88.961 11.136 89.602 11.421 90.03 11.991 C 90.458 12.561 90.671 13.325 90.671 14.282 C 90.671 15.209 90.461 15.965 90.039 16.55 Z M 92.37 11.579 C 91.967 10.796 91.4 10.181 90.671 9.736 C 89.943 9.291 89.087 9.069 88.105 9.069 C 87.148 9.069 86.304 9.288 85.575 9.727 C 84.847 10.166 84.277 10.776 83.868 11.556 C 83.458 12.337 83.253 13.246 83.253 14.282 C 83.253 15.3 83.454 16.201 83.854 16.985 C 84.255 17.768 84.819 18.383 85.548 18.828 C 86.277 19.273 87.13 19.495 88.105 19.496 C 89.081 19.496 89.934 19.274 90.662 18.832 C 91.391 18.39 91.959 17.778 92.366 16.994 C 92.772 16.21 92.976 15.306 92.976 14.282 C 92.976 13.264 92.774 12.363 92.37 11.579 Z" fill="rgb(0,0,0)"></path>
  <path d="M 22.731 12.491 C 22.731 11.973 22.315 11.552 21.803 11.552 C 21.29 11.552 20.875 11.973 20.875 12.491 C 20.875 13.01 21.29 13.431 21.803 13.431 C 22.315 13.431 22.731 13.01 22.731 12.491 Z M 25.514 13.431 C 25.516 14.827 25.208 16.207 24.615 17.467 C 21.687 17.23 18.92 15.594 17.332 12.833 L 17.292 12.764 C 15.683 9.977 12.698 8.104 9.279 8.104 C 9.042 8.104 8.807 8.116 8.575 8.134 C 10.246 5.661 13.053 4.038 16.236 4.038 C 16.484 4.038 16.728 4.051 16.97 4.071 C 21.751 4.45 25.514 8.494 25.514 13.431 Z M 7.761 22.034 C 7.548 21.91 7.295 21.876 7.057 21.94 C 6.82 22.005 6.617 22.162 6.494 22.378 C 6.371 22.594 6.338 22.85 6.401 23.091 C 6.465 23.331 6.62 23.536 6.833 23.661 C 7.277 23.92 7.845 23.766 8.101 23.317 C 8.357 22.868 8.205 22.294 7.761 22.034 Z M 17.64 13.43 C 18.919 16.131 18.904 19.404 17.312 22.194 C 17.189 22.408 17.057 22.618 16.918 22.822 C 14.203 26.823 8.862 28.1 4.638 25.632 C 3.402 24.909 2.393 23.941 1.634 22.825 C 3.301 20.377 6.085 18.769 9.241 18.757 L 9.319 18.757 C 12.508 18.74 15.604 17.06 17.313 14.062 C 17.43 13.856 17.539 13.645 17.64 13.43 Z M 4.887 5.423 C 5.051 5.717 5.358 5.9 5.692 5.901 C 6.026 5.902 6.334 5.722 6.5 5.429 C 6.666 5.135 6.664 4.775 6.494 4.484 C 6.235 4.04 5.672 3.891 5.231 4.148 C 4.791 4.406 4.637 4.974 4.887 5.423 Z M 1.242 14.06 C 1.121 13.844 1.007 13.624 0.902 13.4 C -1.163 9.02 0.415 3.698 4.638 1.23 C 5.875 0.507 7.207 0.106 8.541 0 C 9.802 2.685 9.786 5.929 8.218 8.702 L 8.179 8.771 C 6.599 11.575 6.489 15.129 8.199 18.126 C 8.317 18.332 8.443 18.533 8.576 18.729 C 5.626 18.5 2.834 16.85 1.242 14.06 Z M 11.597 14.37 C 11.084 14.37 10.669 13.949 10.669 13.431 C 10.669 12.912 11.084 12.491 11.597 12.491 C 12.109 12.491 12.525 12.912 12.525 13.431 C 12.525 13.949 12.109 14.37 11.597 14.37 Z" fill="rgb(95,0,205)"></path>
</svg>