<svg width="501" height="198" xmlns="http://www.w3.org/2000/svg" xmlns:xlink="http://www.w3.org/1999/xlink" xml:space="preserve" overflow="hidden"><defs><clipPath id="clip0"><rect x="302" y="423" width="500" height="196"/></clipPath><clipPath id="clip1"><rect x="302" y="423" width="500" height="196"/></clipPath><clipPath id="clip2"><rect x="302" y="423" width="500" height="196"/></clipPath></defs><g transform="translate(-301 -422)"><g><g clip-path="url(#clip0)"><g clip-path="url(#clip1)"><g clip-path="url(#clip2)"><path d="M248.731 508.307C249.666 507.968 249.427 507.093 249.587 506.416 250.134 504.048 251.417 502.516 254.044 502.924 256.67 503.332 257.387 505.212 257.108 507.63 256.84 509.859 256.442 512.077 256.372 514.316 255.636 537.697 268.361 556.749 290.806 565.863 304.938 571.574 320.314 573.505 335.419 571.464 336.294 571.355 337.17 571.305 338.035 571.166 340.682 570.748 343.01 571.166 343.418 574.25 343.826 577.334 341.587 578.299 338.98 578.668 322.833 580.976 306.994 579.842 291.582 574.28 274.46 568.102 261.337 557.476 253.626 540.701 251.278 535.597 250.641 530.026 248.731 524.783Z" fill="#D9D9D9" fill-rule="nonzero" fill-opacity="1" transform="matrix(1.0051 0 0 1 52 23.543)"/><path d="M481.981 423.648C467.564 430.543 452.362 431.867 436.801 431.12 436.423 431.12 436.055 431.071 435.677 431.071 432.971 431.071 430.792 430.185 430.862 427.091 430.931 423.997 433.13 423.35 435.836 423.459 442.471 423.82 449.123 423.674 455.735 423.022 468.793 421.709 481.121 416.373 491.015 407.75 494.119 405.043 497.273 402.387 500.606 399.532 493.144 428.663 480.807 445.487 450.691 447.497 436.254 448.492 421.838 446.761 407.451 446.502 391.532 446.233 375.862 447.497 360.998 453.745 348.353 459.038 337.04 466.301 328.275 477.006 324.435 481.692 321.311 486.786 320.664 493.005 320.306 496.636 320.744 500.069 324.116 502.317 327.489 504.566 330.951 504.217 334.414 502.367 338.008 500.312 341.348 497.841 344.363 495.004 356.402 484.299 369.007 474.529 384.478 469.087 386.389 468.41 388.309 467.157 387.364 464.639 386.518 462.371 384.488 462.65 382.568 463.067 366.649 466.639 353.586 475.156 341.935 486.13 340.115 487.851 338.453 489.721 336.762 491.572 335.07 493.423 332.971 494.218 330.872 492.368 328.942 490.657 329.21 488.567 330.872 486.727 344.293 471.803 360.182 460.699 380.021 455.884 381.965 455.363 383.99 455.208 385.991 455.426 390.08 455.964 393.065 457.973 394.577 461.794 396.159 465.774 395.164 469.395 392.458 472.599 391.001 474.343 389.105 475.665 386.966 476.429 373.853 481.066 362.809 488.945 352.501 498.019 347.716 502.238 343.03 506.635 337.21 509.451 331.101 512.435 325.002 512.326 319.42 508.257 313.839 504.188 312.247 498.308 313.132 491.652 313.722 487.69 315.023 483.868 316.973 480.369 320.895 473.216 326.217 466.925 332.623 461.874 350.213 447.557 370.48 440.304 393.084 439.13 406.277 438.443 419.41 439.418 432.563 439.925 442.721 440.313 452.889 440.642 462.819 437.757 470.765 435.656 477.615 430.612 481.981 423.648Z" fill="#D9D9D9" fill-rule="nonzero" fill-opacity="1" transform="matrix(1.0051 0 0 1 52 23.543)"/><path d="M477.414 445.209C469.146 470.659 456.282 491.781 431.28 503.292 430.167 503.866 428.996 504.32 427.787 504.645 426.023 505.229 424.113 504.315 423.459 502.576 422.568 500.86 423.236 498.745 424.952 497.853 425.001 497.828 425.051 497.803 425.101 497.78 425.967 497.293 426.912 496.935 427.827 496.527 440.483 490.796 450.263 481.842 458.371 469.355L451.089 473.514C438.155 480.886 424.027 484.558 409.55 487.184 394.285 489.845 380.084 496.771 368.589 507.162 360.849 514.127 352.551 520.365 343.07 524.862 330.136 530.991 317.699 530.633 306.357 521.559 295.572 512.933 293.662 500.934 295.861 488.269 298.845 470.848 309.252 457.844 323.032 447.427 344.343 431.319 368.55 423.121 395.283 422.276 402.934 422.037 410.575 422.106 418.226 422.445 420.922 422.564 423.201 423.36 423.052 426.424 422.912 429.658 420.465 430.265 417.639 430.106 400.546 429.111 383.493 429.349 366.898 434.085 348.193 439.468 331.23 448.144 317.739 462.461 308.456 472.32 302.377 483.712 302.815 497.731 303.392 514.734 318.784 525.32 334.971 519.887 343.767 516.839 351.801 511.924 358.521 505.481 374.897 490.139 394.129 481.503 416.226 477.971 435.607 474.867 452.332 465.604 467.355 453.218 470.599 450.611 473.793 448.094 477.414 445.209Z" fill="#D9D9D9" fill-rule="nonzero" fill-opacity="1" transform="matrix(1.0051 0 0 1 52 23.543)"/><path d="M417.42 522.504C417.331 527.23 414.306 533.339 410.128 538.92 399.82 552.72 385.812 561.804 370.47 568.967 366.062 571.037 361.426 572.618 356.899 574.429 354.362 575.424 352.044 575.345 351.059 572.439 350.074 569.534 351.905 568.131 354.471 567.256 367.926 562.805 380.487 556.007 391.572 547.178 397.721 542.204 403.253 536.592 407.053 529.538 408.842 526.527 409.793 523.092 409.809 519.589 409.702 513.853 404.966 509.29 399.231 509.397 398.542 509.41 397.856 509.491 397.184 509.64 393.264 510.436 389.96 512.505 386.856 514.813 379.942 519.977 373.226 525.409 366.271 530.513 356.073 537.995 345.03 543.676 332.285 545.517 327.26 546.243 324.813 545.447 324.693 542.532 324.524 538.025 328.086 538.453 331.021 538.045 343.05 536.383 353.297 530.762 362.859 523.638 369.266 518.843 375.504 513.828 381.892 508.993 385.349 506.289 389.228 504.171 393.373 502.725 405.481 498.626 417.54 507.322 417.42 522.504Z" fill="#D9D9D9" fill-rule="nonzero" fill-opacity="1" transform="matrix(1.0051 0 0 1 52 23.543)"/><path d="M306.844 450.183C304.029 453.795 301.154 457.357 298.417 461.008 289.782 472.529 284.489 485.314 285.016 499.86 285.603 517.281 295.264 532.463 312.874 536.791 315.411 537.418 317.619 538.612 316.853 541.587 315.998 545.059 313.212 544.771 310.466 544.054 293.124 539.527 280.618 525.041 277.982 506.764 276.26 494.825 278.161 483.433 282.817 472.4 283.324 471.196 284.309 470.131 284.061 468.211 280.399 470.427 277.035 473.102 274.052 476.171 269.288 480.78 265.339 486.162 262.371 492.089 261.108 494.606 259.685 497.064 256.462 495.522 252.999 493.84 254.253 491.065 255.606 488.488 264.142 472.171 277.315 461.048 294.298 454.183 298.278 452.561 302.347 451.079 306.367 449.536Z" fill="#D9D9D9" fill-rule="nonzero" fill-opacity="1" transform="matrix(1.0051 0 0 1 52 23.543)"/><path d="M334.155 595.343C332.892 595.343 332.265 595.343 331.638 595.343 329.151 595.482 327.34 594.477 327.181 591.91 327.002 589.114 328.862 587.93 331.469 587.821 338.851 587.53 346.185 586.49 353.357 584.717 377.046 578.847 397.741 567.803 413.878 549.228 422.415 539.418 428.723 528.504 428.175 514.833 427.926 512.899 429.293 511.128 431.227 510.879 431.429 510.853 431.633 510.844 431.837 510.854 434.394 510.794 435.677 512.515 435.816 514.933 436.115 521.052 435.08 527.162 432.782 532.841 426.812 547.974 416.316 559.525 403.581 569.206 383.499 584.531 359.358 593.619 334.155 595.343Z" fill="#D9D9D9" fill-rule="nonzero" fill-opacity="1" transform="matrix(1.0051 0 0 1 52 23.543)"/><path d="M505.63 561.465C501.75 561.465 497.86 561.545 493.98 561.465 488.886 561.336 486.15 558.043 487.015 553.068 488.819 542.622 490.67 532.181 492.567 521.748 493.562 516.346 497.263 513.222 502.775 513.152 510.071 513.066 517.344 513.066 524.594 513.152 530.862 513.222 534.314 518.405 531.558 523.957 530.145 526.812 527.051 524.952 524.763 525.131 522.474 525.31 523.638 523.38 523.867 522.415 524.424 520.037 523.509 519.171 521.201 519.191 515.556 519.237 509.918 519.237 504.287 519.191 502.228 519.191 501.004 519.897 500.636 522.047 498.852 532.248 497.031 542.442 495.174 552.63 494.805 554.68 495.761 555.367 497.621 555.367 503.76 555.367 509.898 555.367 516.047 555.367 518.037 555.367 519.121 554.541 519.46 552.65 520.077 549.208 520.634 545.755 521.3 542.333 521.768 539.955 520.733 539.169 518.485 539.199 514.505 539.265 510.492 539.265 506.446 539.199 505.451 539.199 503.461 539.885 503.989 537.667 504.377 536.085 503.372 533.309 506.158 533.229 512.127 533.05 518.196 532.991 524.186 533.399 527.926 533.657 530.066 536.732 529.588 540.652 529.036 545.233 528.229 549.78 527.17 554.272 526.175 558.471 522.196 561.326 517.689 561.435 513.659 561.545 509.65 561.465 505.63 561.465Z" fill="#D9D9D9" fill-rule="nonzero" fill-opacity="1" transform="matrix(1.0051 0 0 1 52 23.543)"/><path d="M531.528 493.97C533.637 482.13 535.508 471.325 537.498 460.53 537.886 457.927 540.311 456.132 542.914 456.52 543.364 456.587 543.801 456.718 544.213 456.909 545.477 457.436 544.96 458.272 544.82 459.068 542.472 472.34 540.144 485.622 537.746 498.865 537.304 502.239 534.571 504.848 531.18 505.133 527.608 505.62 526.295 503.014 525.011 500.248 520.206 489.861 515.261 479.543 509.869 468.132 508.267 477.086 506.884 484.886 505.461 492.706 504.864 496.019 504.227 499.332 503.77 502.655 503.501 504.645 502.606 505.282 500.576 505.252 496.139 505.202 496.139 505.332 496.925 500.805 499.041 488.76 501.156 476.714 503.272 464.669 503.69 462.291 504.367 460.073 506.386 458.471 509.978 455.615 513.908 456.561 515.858 460.709 520.892 471.475 525.966 482.17 531.528 493.97Z" fill="#D9D9D9" fill-rule="nonzero" fill-opacity="1" transform="matrix(1.0051 0 0 1 52 23.543)"/><path d="M322.743 562.848C316.981 562.846 311.239 562.155 305.641 560.789 303.133 560.242 301.323 558.968 301.85 556.202 302.377 553.436 304.437 552.77 307.024 553.297 337.498 559.585 362.451 548.322 384.837 528.961 387.821 526.345 390.557 523.37 393.373 520.524 395.233 518.644 397.263 518.087 399.263 520.096 401.094 521.947 400.556 523.917 398.954 525.738 378.787 548.78 353.904 562.192 322.743 562.848Z" fill="#D9D9D9" fill-rule="nonzero" fill-opacity="1" transform="matrix(1.0051 0 0 1 52 23.543)"/><path d="M668.808 468.997C663.306 468.758 657.794 468.878 652.292 468.908 648.74 468.908 649.984 471.972 649.626 473.683 649.188 475.792 651.247 474.997 652.262 475.026 656.401 475.126 660.53 475.026 664.659 475.076 666.211 475.076 668.201 474.658 668.042 477.285 667.922 479.513 667.664 481.573 664.46 481.115 662.868 480.886 661.206 481.115 659.585 481.066 643.785 480.2 643.178 484.568 641.348 496.984 640.631 501.82 643.338 505.003 648.183 505.173 651.436 505.292 654.7 505.173 657.953 505.173 661.206 505.173 664.46 505.083 667.703 505.222 669.524 505.302 670.4 504.765 670.688 502.894 672.161 494.179 673.842 485.493 675.235 476.768 675.971 472.41 673.335 469.186 668.808 468.997ZM665.127 494.587C664.659 498.447 663.137 499.561 659.485 499.203 656.746 499.035 653.999 499.012 651.257 499.133 650.392 499.133 649.158 499.322 648.899 498.427 647.904 495.193 649.417 492.119 649.964 489.005 650.322 486.926 652.292 487.135 653.944 487.135L658.809 487.135C666.3 487.135 666.032 487.095 665.127 494.587Z" fill="#D9D9D9" fill-rule="nonzero" fill-opacity="1" transform="matrix(1.0051 0 0 1 52 23.543)"/><path d="M562.351 525.489C556.227 525.083 550.087 525 543.955 525.24 541.04 525.35 542.154 528.364 541.776 530.046 541.348 531.906 543.268 531.23 544.174 531.259 548.302 531.349 552.441 531.259 556.57 531.319 558.172 531.319 560.451 530.653 560.261 533.578 560.102 535.796 559.754 537.826 556.6 537.358 555.008 537.11 553.347 537.358 551.715 537.299 536.174 536.483 535.488 540.532 533.528 552.959 532.712 558.142 535.518 561.336 540.811 561.465 543.945 561.525 547.079 561.465 550.203 561.465 553.586 561.465 556.978 561.416 560.351 561.465 561.883 561.465 562.52 560.998 562.799 559.426 564.291 550.571 565.982 541.756 567.445 532.901 568.102 529.091 565.962 525.748 562.351 525.489ZM557.376 550.551C556.909 554.362 555.635 556.053 551.606 555.436 549.253 555.148 546.874 555.148 544.522 555.436 540.87 555.784 540.283 554.153 540.97 551.029 542.89 542.363 540.841 543.467 551.049 543.398 558.471 543.378 558.242 543.348 557.356 550.551Z" fill="#D9D9D9" fill-rule="nonzero" fill-opacity="1" transform="matrix(1.0051 0 0 1 52 23.543)"/><path d="M560.809 505.232C557.545 505.232 554.282 505.332 551.029 505.232 546.124 505.053 543.427 501.84 544.213 497.024 545.288 490.368 546.442 483.732 547.716 477.126 548.492 472.476 552.493 469.054 557.207 469.007 561.963 468.798 566.738 468.788 571.494 469.007 576.25 469.226 578.837 472.589 578.041 477.444 577.722 479.434 577.384 481.424 576.936 483.324 575.992 487.774 572.112 490.991 567.564 491.094 564.689 491.194 561.794 491.174 558.918 491.094 557.993 491.094 556.192 491.711 556.67 489.751 557.078 488.08 555.983 485.354 559.048 485.125 561.545 484.946 564.022 485.125 566.569 485.065 569.554 484.936 571.106 482.08 570.917 477.285 570.798 474.171 568.36 475.245 566.719 475.136 564.351 474.987 561.943 475.285 559.575 475.056 556.312 474.748 554.799 475.962 554.342 479.265 553.605 484.707 552.581 490.109 551.476 495.482 550.879 498.417 551.934 499.283 554.76 499.213 560.271 499.084 565.793 499.133 571.315 499.213 572.31 499.213 574.3 498.447 573.812 500.695 573.424 502.357 574.479 505.133 571.335 505.242 567.833 505.332 564.321 505.232 560.809 505.232Z" fill="#D9D9D9" fill-rule="nonzero" fill-opacity="1" transform="matrix(1.0051 0 0 1 52 23.543)"/><path d="M728.642 505.232C725.389 505.232 722.116 505.332 718.862 505.232 714.296 505.043 711.54 502.088 712.176 497.611 713.171 490.567 714.435 483.563 715.878 476.598 716.761 472.238 720.563 469.083 725.011 469.017 729.767 468.798 734.542 468.808 739.298 469.017 744.273 469.206 746.78 472.42 746.073 477.295 745.786 479.397 745.387 481.483 744.88 483.543 743.875 487.981 739.928 491.13 735.378 491.124 732.622 491.214 729.856 491.224 727.1 491.124 726.105 491.124 724.006 491.87 724.673 489.642 725.15 488.05 723.936 485.195 727.22 485.125 729.478 485.125 731.737 485.125 733.995 485.125 737.577 485.045 738.87 482.976 738.88 477.514 738.88 473.992 736.194 475.225 734.512 475.205 723.23 475.066 723.23 475.116 721.24 486.15 720.683 489.224 720.335 492.348 719.559 495.353 718.733 498.586 720.066 499.332 722.991 499.233 728.254 499.104 733.528 499.113 738.781 499.233 739.825 499.233 742.313 497.86 741.815 500.845 741.487 502.835 742.163 505.61 738.423 505.312 735.179 505.063 731.906 505.262 728.642 505.262Z" fill="#D9D9D9" fill-rule="nonzero" fill-opacity="1" transform="matrix(1.0051 0 0 1 52 23.543)"/><path d="M638.224 561.465C634.97 561.465 631.707 561.555 628.454 561.465 623.578 561.306 620.773 558.043 621.539 553.297 622.613 546.664 623.797 540.031 625.091 533.399 625.84 528.751 629.825 525.316 634.533 525.26 639.288 525.071 644.064 525.071 648.82 525.26 653.575 525.449 656.053 528.484 655.446 533.219 655.19 535.326 654.828 537.418 654.361 539.487 653.415 543.934 649.553 547.159 645.009 547.298 642.124 547.407 639.239 547.377 636.353 547.298 635.418 547.298 633.647 547.875 634.095 545.935 634.473 544.253 633.368 541.537 636.473 541.308 638.725 541.139 640.986 541.139 643.238 541.308 646.113 541.527 647.218 540.204 647.666 537.508 648.66 531.279 648.8 531.289 642.611 531.289 640.482 531.289 638.343 531.409 636.214 531.289 633.607 531.11 632.304 532.135 631.896 534.752 631.001 540.423 630.016 546.074 628.911 551.665 628.344 554.541 629.319 555.466 632.185 555.396 637.696 555.247 643.218 555.307 648.73 555.396 649.725 555.396 651.804 554.67 651.237 556.859 650.829 558.491 651.964 561.326 648.78 561.435 645.248 561.565 641.726 561.465 638.224 561.465Z" fill="#D9D9D9" fill-rule="nonzero" fill-opacity="1" transform="matrix(1.0051 0 0 1 52 23.543)"/><path d="M623.429 505.232C620.166 505.232 616.912 505.322 613.659 505.232 608.883 505.063 606.048 502.078 606.794 497.422 608.565 486.352 610.528 475.308 612.684 464.291 613.55 459.834 617.569 456.988 622.355 456.909 628.732 456.799 635.12 456.859 641.507 456.909 642.621 456.909 644.432 456.411 643.964 458.55 643.586 460.232 644.591 462.938 641.298 462.938 635.915 462.938 630.523 463.067 625.141 462.938 622.056 462.839 620.693 463.883 620.166 467.037 618.693 476.396 617.035 485.718 615.191 495.004 614.475 498.566 615.729 499.392 619.012 499.263 623.986 499.064 629.031 499.163 634.045 499.263 635.04 499.263 637.03 498.467 636.433 500.785 635.995 502.437 637.199 505.232 633.936 505.312 630.443 505.302 626.931 505.242 623.429 505.232Z" fill="#D9D9D9" fill-rule="nonzero" fill-opacity="1" transform="matrix(1.0051 0 0 1 52 23.543)"/><path d="M687.91 505.242C685.025 505.242 682.14 505.332 679.254 505.192 678.259 505.192 676.17 506.058 676.658 503.949 677.036 502.257 675.722 499.163 679.314 499.143 684.577 499.143 689.85 499.143 695.113 499.143 698.994 499.143 702.536 493.721 700.914 490.249 700.327 489.015 699.123 489.055 697.989 489.055 694.596 489.055 691.213 489.115 687.821 489.055 682.528 488.935 680.09 486.12 680.647 480.857 681.563 472.151 685.095 468.918 693.75 468.918 698.148 468.918 702.536 468.848 706.923 468.918 707.998 468.918 710.256 468.002 709.719 470.45 709.351 472.151 710.465 475.126 706.834 475.056 702.197 474.957 697.551 475.056 692.905 475.056 689.124 475.056 687.005 477.663 687.701 481.334 688.02 483.045 689.323 482.966 690.587 482.966 693.979 482.966 697.362 482.916 700.755 482.966 706.316 483.085 708.903 486.239 708.028 491.781 707.729 493.631 707.451 495.482 707.033 497.303 706.057 501.893 702.005 505.177 697.312 505.183 694.188 505.312 691.044 505.232 687.91 505.242Z" fill="#D9D9D9" fill-rule="nonzero" fill-opacity="1" transform="matrix(1.0051 0 0 1 52 23.543)"/><path d="M668.052 561.475C665.166 561.475 662.281 561.555 659.406 561.426 658.411 561.426 656.302 562.301 656.869 560.053 657.296 558.351 656.073 555.347 659.644 555.367 664.788 555.367 669.932 555.367 675.066 555.367 678.761 555.224 681.641 552.113 681.499 548.418 681.478 547.856 681.385 547.299 681.224 546.76 680.797 545.387 679.682 545.288 678.508 545.288 675.125 545.288 671.743 545.288 668.35 545.288 662.609 545.198 660.112 542.303 660.958 536.682 662.301 527.727 665.286 525.18 674.409 525.161 678.667 525.161 682.936 525.101 687.194 525.161 688.298 525.161 690.447 524.275 689.92 526.792 689.552 528.573 690.547 531.389 686.935 531.299 682.179 531.18 677.404 531.24 672.648 531.299 669.514 531.299 666.848 535.279 668.032 538.045 668.599 539.398 669.823 539.199 670.927 539.209 674.31 539.209 677.702 539.149 681.085 539.209 686.348 539.338 688.985 542.273 688.348 547.387 688.073 549.867 687.581 552.317 686.875 554.71 685.622 558.759 681.901 561.266 677.434 561.445L668.032 561.445Z" fill="#D9D9D9" fill-rule="nonzero" fill-opacity="1" transform="matrix(1.0051 0 0 1 52 23.543)"/><path d="M588.547 525.161C589.542 525.161 590.537 525.161 591.532 525.161 598.258 525.29 600.635 528.066 599.491 534.592 598.188 542.353 596.676 550.073 595.512 557.854 594.875 562.052 591.791 560.331 589.711 560.351 586.667 560.351 588.348 558.013 588.547 556.799 589.761 549.407 591.094 542.034 592.527 534.682 592.995 532.195 592.199 531.329 589.661 531.25 581.951 530.991 581.981 530.911 580.707 538.513 579.513 545.397 578.18 552.262 577.036 559.157 576.33 563.455 573.056 561.147 571.066 561.346 568.39 561.565 570.002 559.356 570.151 558.361 571.255 551.456 572.529 544.581 573.743 537.697 575.613 527.011 577.812 525.141 588.547 525.161Z" fill="#D9D9D9" fill-rule="nonzero" fill-opacity="1" transform="matrix(1.0051 0 0 1 52 23.543)"/><path d="M592.179 505.242C580.976 505.242 579.523 503.611 581.364 492.766 582.787 484.399 584.349 476.051 585.831 467.704 586.249 465.376 591.005 463.664 592.796 465.157 593.581 465.794 593.144 466.56 592.935 467.196 591.801 470.529 593.273 471.335 596.347 470.977 598.09 470.733 599.858 470.733 601.601 470.977 602.854 471.166 605.341 469.634 605.123 472.479 604.973 474.529 605.361 477.364 601.402 477.036 598.108 476.758 593.691 475.494 591.671 477.623 589.652 479.752 590.089 483.951 589.472 487.254 588.915 490.239 588.478 493.164 587.841 496.089 587.363 498.278 588.239 499.123 590.338 499.074 592.845 499.074 595.313 499.014 597.86 499.074 598.855 499.074 600.606 498.517 600.138 500.417 599.73 502.078 600.844 504.794 597.8 505.103 595.959 505.421 594.059 505.232 592.179 505.242Z" fill="#D9D9D9" fill-rule="nonzero" fill-opacity="1" transform="matrix(1.0051 0 0 1 52 23.543)"/><path d="M264.59 519.161C264.351 517.214 265.736 515.442 267.683 515.203 267.766 515.193 267.849 515.186 267.933 515.182 269.8 514.795 271.627 515.996 272.013 517.863 272.034 517.963 272.05 518.065 272.062 518.166 274.539 531.25 282.081 540.721 293.115 547.755 295.204 549.089 296 550.949 294.577 553.158 293.64 554.881 291.484 555.519 289.76 554.582 289.608 554.499 289.462 554.406 289.324 554.302 276.39 546.343 267.684 535.279 264.68 520.176 264.65 519.917 264.65 519.669 264.59 519.161Z" fill="#D9D9D9" fill-rule="nonzero" fill-opacity="1" transform="matrix(1.0051 0 0 1 52 23.543)"/><path d="M609.401 525.141C617.957 525.141 620.017 527.658 618.504 536.164 617.171 543.636 615.878 551.088 614.525 558.6 614.107 560.978 609.55 562.749 607.56 561.296 606.466 560.49 607.282 559.466 607.431 558.58 608.754 550.849 610.018 543.109 611.56 535.418 612.197 532.274 611.47 530.881 608.147 531.289 607.777 531.374 607.393 531.374 607.023 531.289 605.789 530.822 603.302 532.523 603.461 529.727 603.59 527.459 603.461 524.355 607.441 525.131 608.092 525.2 608.749 525.203 609.401 525.141Z" fill="#D9D9D9" fill-rule="nonzero" fill-opacity="1" transform="matrix(1.0051 0 0 1 52 23.543)"/><path d="M629.946 483.006C628.456 483.152 626.954 483.129 625.469 482.936 624.175 482.638 621.579 484.607 621.748 481.284 621.877 478.787 622.096 476.409 625.907 476.837 629.478 477.245 633.13 476.837 636.741 476.957 637.915 476.957 639.955 476.28 639.378 478.718 638.99 480.369 639.965 483.075 636.672 483.016 634.433 482.976 632.185 483.006 629.946 483.006Z" fill="#D9D9D9" fill-rule="nonzero" fill-opacity="1" transform="matrix(1.0051 0 0 1 52 23.543)"/></g></g></g></g></g></svg>