<svg id="Layer_1" data-name="Layer 1" xmlns="http://www.w3.org/2000/svg" viewBox="0 0 500 196.79"><defs><style>.cls-1{fill:#e60113;}.cls-2{fill:#e60112;}.cls-3{fill:#e50112;}.cls-4{fill:#3e3f3a;}.cls-5{fill:#3d3e39;}.cls-6{fill:#41423d;}</style></defs><path class="cls-1" d="M250,510.9c.94-.34.7-1.22.86-1.9.55-2.38,1.84-3.92,4.48-3.51s3.36,2.3,3.08,4.73c-.27,2.24-.67,4.47-.74,6.72-.74,23.5,12.05,42.65,34.61,51.81a88.17,88.17,0,0,0,44.84,5.63c.88-.11,1.76-.16,2.63-.3,2.66-.42,5,0,5.41,3.1s-1.84,4.07-4.46,4.44c-16.23,2.32-32.15,1.18-47.64-4.41-17.21-6.21-30.4-16.89-38.15-33.75-2.36-5.13-3-10.73-4.92-16Z" transform="translate(-250 -401.6)"/><path class="cls-1" d="M484.44,425.81c-14.49,6.93-29.77,8.26-45.41,7.51-.38,0-.75-.05-1.13-.05-2.72,0-4.91-.89-4.84-4s2.28-3.76,5-3.65a131.24,131.24,0,0,0,20-.44,63.66,63.66,0,0,0,35.46-15.35c3.12-2.72,6.29-5.39,9.64-8.26-7.5,29.28-19.9,46.19-50.17,48.21-14.51,1-29-.74-43.46-1-16-.27-31.75,1-46.69,7.28-12.71,5.32-24.08,12.62-32.89,23.38-3.86,4.71-7,9.83-7.65,16.08-.36,3.65.08,7.1,3.47,9.36s6.87,1.91,10.35.05a52.91,52.91,0,0,0,10-7.4c12.1-10.76,24.77-20.58,40.32-26.05,1.92-.68,3.85-1.94,2.9-4.47-.85-2.28-2.89-2-4.82-1.58-16,3.59-29.13,12.15-40.84,23.18-1.83,1.73-3.5,3.61-5.2,5.47s-3.81,2.66-5.92.8c-1.94-1.72-1.67-3.82,0-5.67,13.49-15,29.46-26.16,49.4-31a16.33,16.33,0,0,1,6-.46c4.11.54,7.11,2.56,8.63,6.4,1.59,4,.59,7.64-2.13,10.86a12.8,12.8,0,0,1-5.52,3.85c-13.18,4.66-24.28,12.58-34.64,21.7-4.81,4.24-9.52,8.66-15.37,11.49-6.14,3-12.27,2.89-17.88-1.2s-7.21-10-6.32-16.69a33.37,33.37,0,0,1,3.86-11.34,61.06,61.06,0,0,1,15.73-18.59c17.68-14.39,38.05-21.68,60.77-22.86,13.26-.69,26.46.29,39.68.8,10.21.39,20.43.72,30.41-2.18A32.55,32.55,0,0,0,484.44,425.81Z" transform="translate(-250 -401.6)"/><path class="cls-2" d="M479.85,447.48c-8.31,25.58-21.24,46.81-46.37,58.38a17.69,17.69,0,0,1-3.51,1.36,3.48,3.48,0,0,1-4.35-2.08,3.52,3.52,0,0,1,1.65-4.82c.87-.49,1.82-.85,2.74-1.26,12.72-5.76,22.55-14.76,30.7-27.31l-7.32,4.18c-13,7.41-27.2,11.1-41.75,13.74a82.52,82.52,0,0,0-41.17,20.08c-7.78,7-16.12,13.27-25.65,17.79-13,6.16-25.5,5.8-36.9-3.32-10.84-8.67-12.76-20.73-10.55-33.46,3-17.51,13.46-30.58,27.31-41.05,21.42-16.19,45.75-24.43,72.62-25.28,7.69-.24,15.37-.17,23.06.17,2.71.12,5,.92,4.85,4-.14,3.25-2.6,3.86-5.44,3.7-17.18-1-34.32-.76-51,4-18.8,5.41-35.85,14.13-49.41,28.52-9.33,9.91-15.44,21.36-15,35.45.58,17.09,16.05,27.73,32.32,22.27a64.92,64.92,0,0,0,23.67-14.48c16.46-15.42,35.79-24.1,58-27.65,19.48-3.12,36.29-12.43,51.39-24.88C473,452.91,476.21,450.38,479.85,447.48Z" transform="translate(-250 -401.6)"/><path class="cls-1" d="M419.55,525.17c-.09,4.75-3.13,10.89-7.33,16.5-10.36,13.87-24.44,23-39.86,30.2-4.43,2.08-9.09,3.67-13.64,5.49-2.55,1-4.88.92-5.87-2s.85-4.33,3.43-5.21a120.71,120.71,0,0,0,37.29-20.18c6.18-5,11.74-10.64,15.56-17.73a19.76,19.76,0,0,0,2.77-10,10.44,10.44,0,0,0-12.69-10c-3.94.8-7.26,2.88-10.38,5.2-6.95,5.19-13.7,10.65-20.69,15.78-10.25,7.52-21.35,13.23-34.16,15.08-5.05.73-7.51-.07-7.63-3-.17-4.53,3.41-4.1,6.36-4.51,12.09-1.67,22.39-7.32,32-14.48,6.44-4.82,12.71-9.86,19.13-14.72a40.25,40.25,0,0,1,11.54-6.3C407.55,501.17,419.67,509.91,419.55,525.17Z" transform="translate(-250 -401.6)"/><path class="cls-3" d="M308.41,452.48c-2.83,3.63-5.72,7.21-8.47,10.88-8.68,11.58-14,24.43-13.47,39.05.59,17.51,10.3,32.77,28,37.12,2.55.63,4.77,1.83,4,4.82-.86,3.49-3.66,3.2-6.42,2.48-17.43-4.55-30-19.11-32.65-37.48-1.73-12,.18-23.45,4.86-34.54.51-1.21,1.5-2.28,1.25-4.21a50.48,50.48,0,0,0-10.06,8,59.06,59.06,0,0,0-11.74,16c-1.27,2.53-2.7,5-5.94,3.45-3.48-1.69-2.22-4.48-.86-7.07,8.58-16.4,21.82-27.58,38.89-34.48,4-1.63,8.09-3.12,12.13-4.67Z" transform="translate(-250 -401.6)"/><path class="cls-1" d="M335.86,598.38c-1.27,0-1.9,0-2.53,0-2.5.14-4.32-.87-4.48-3.45-.18-2.81,1.69-4,4.31-4.11a109.65,109.65,0,0,0,22-3.12c23.81-5.9,44.61-17,60.83-35.67,8.58-9.86,14.92-20.83,14.37-34.57a3.55,3.55,0,0,1,3.68-4c2.57-.06,3.86,1.67,4,4.1a42.47,42.47,0,0,1-3.05,18c-6,15.21-16.55,26.82-29.35,36.55A129.6,129.6,0,0,1,335.86,598.38Z" transform="translate(-250 -401.6)"/><path class="cls-4" d="M508.21,564.33c-3.9,0-7.81.08-11.71,0-5.12-.13-7.87-3.44-7-8.44q2.72-15.75,5.58-31.48c1-5.43,4.72-8.57,10.26-8.64q11-.13,21.93,0c6.3.07,9.77,5.28,7,10.86-1.42,2.87-4.53,1-6.83,1.18s-1.13-1.76-.9-2.73c.56-2.39-.36-3.26-2.68-3.24q-8.51.07-17,0c-2.07,0-3.3.71-3.67,2.87q-2.69,15.38-5.49,30.74c-.37,2.06.59,2.75,2.46,2.75,6.17,0,12.34,0,18.52,0,2,0,3.09-.83,3.43-2.73.62-3.46,1.18-6.93,1.85-10.37.47-2.39-.57-3.18-2.83-3.15q-6,.1-12.1,0c-1,0-3,.69-2.47-1.54.39-1.59-.62-4.38,2.18-4.46,6-.18,12.1-.24,18.12.17,3.76.26,5.91,3.35,5.43,7.29a124.53,124.53,0,0,1-2.43,13.69c-1,4.22-5,7.09-9.53,7.2C516.28,564.41,512.25,564.33,508.21,564.33Z" transform="translate(-250 -401.6)"/><path class="cls-5" d="M534.24,496.49c2.12-11.9,4-22.76,6-33.61a4.79,4.79,0,0,1,6.75-3.64c1.27.53.75,1.37.61,2.17-2.36,13.34-4.7,26.69-7.11,40a7.27,7.27,0,0,1-6.6,6.3c-3.59.49-4.91-2.13-6.2-4.91-4.83-10.44-9.8-20.81-15.22-32.28-1.61,9-3,16.84-4.43,24.7-.6,3.33-1.24,6.66-1.7,10-.27,2-1.17,2.64-3.21,2.61-4.46-.05-4.46.08-3.67-4.47q3.19-18.16,6.38-36.32c.42-2.39,1.1-4.62,3.13-6.23,3.61-2.87,7.56-1.92,9.52,2.25C523.55,473.88,528.65,484.63,534.24,496.49Z" transform="translate(-250 -401.6)"/><path class="cls-1" d="M324.39,565.72a72.64,72.64,0,0,1-17.19-2.07c-2.52-.55-4.34-1.83-3.81-4.61s2.6-3.45,5.2-2.92c30.63,6.32,55.71-5,78.21-24.46,3-2.63,5.75-5.62,8.58-8.48,1.87-1.89,3.91-2.45,5.92-.43,1.84,1.86,1.3,3.84-.31,5.67C380.72,551.58,355.71,565.06,324.39,565.72Z" transform="translate(-250 -401.6)"/><path class="cls-4" d="M672.22,471.39c-5.53-.24-11.07-.12-16.6-.09-3.57,0-2.32,3.08-2.68,4.8-.44,2.12,1.63,1.32,2.65,1.35,4.16.1,8.31,0,12.46.05,1.56,0,3.56-.42,3.4,2.22-.12,2.24-.38,4.31-3.6,3.85-1.6-.23-3.27,0-4.9-.05-15.88-.87-16.49,3.52-18.33,16-.72,4.86,2,8.06,6.87,8.23,3.27.12,6.55,0,9.82,0s6.54-.09,9.8.05c1.83.08,2.71-.46,3-2.34,1.48-8.76,3.17-17.49,4.57-26.26C679.42,474.82,676.77,471.58,672.22,471.39Zm-3.7,25.72c-.47,3.88-2,5-5.67,4.64a78.58,78.58,0,0,0-8.27-.07c-.87,0-2.11.19-2.37-.71-1-3.25.52-6.34,1.07-9.47.36-2.09,2.34-1.88,4-1.88h4.89C669.7,489.62,669.43,489.58,668.52,497.11Z" transform="translate(-250 -401.6)"/><path class="cls-4" d="M565.22,528.17a175.42,175.42,0,0,0-18.49-.25c-2.93.11-1.81,3.14-2.19,4.83-.43,1.87,1.5,1.19,2.41,1.22,4.15.09,8.31,0,12.46.06,1.61,0,3.9-.67,3.71,2.27-.16,2.23-.51,4.27-3.68,3.8-1.6-.25-3.27,0-4.91-.06-15.62-.82-16.31,3.25-18.28,15.74-.82,5.21,2,8.42,7.32,8.55,3.15.06,6.3,0,9.44,0,3.4,0,6.81-.05,10.2,0,1.54,0,2.18-.47,2.46-2.05,1.5-8.9,3.2-17.76,4.67-26.66C571,531.79,568.85,528.43,565.22,528.17Zm-5,25.19c-.47,3.83-1.75,5.53-5.8,4.91a29.24,29.24,0,0,0-7.12,0c-3.67.35-4.26-1.29-3.57-4.43,1.93-8.71-.13-7.6,10.13-7.67C561.32,546.15,561.09,546.12,560.2,553.36Z" transform="translate(-250 -401.6)"/><path class="cls-4" d="M563.67,507.81c-3.28,0-6.56.1-9.83,0-4.93-.18-7.64-3.41-6.85-8.25,1.08-6.69,2.24-13.36,3.52-20a9.77,9.77,0,0,1,9.54-8.16c4.78-.21,9.58-.22,14.36,0s7.38,3.6,6.58,8.48c-.32,2-.66,4-1.11,5.91a9.86,9.86,0,0,1-9.42,7.81c-2.89.1-5.8.08-8.69,0-.93,0-2.74.62-2.26-1.35.41-1.68-.69-4.42,2.39-4.65,2.51-.18,5,0,7.56-.06,3-.13,4.56-3,4.37-7.82-.12-3.13-2.57-2.05-4.22-2.16-2.38-.15-4.8.15-7.18-.08-3.28-.31-4.8.91-5.26,4.23-.74,5.47-1.77,10.9-2.88,16.3-.6,2.95.46,3.82,3.3,3.75,5.54-.13,11.09-.08,16.64,0,1,0,3-.77,2.51,1.49-.39,1.67.67,4.46-2.49,4.57C570.73,507.91,567.2,507.81,563.67,507.81Z" transform="translate(-250 -401.6)"/><path class="cls-4" d="M732.36,507.81c-3.27,0-6.56.1-9.83,0-4.59-.19-7.36-3.16-6.72-7.66,1-7.08,2.27-14.12,3.72-21.12a9.51,9.51,0,0,1,9.18-7.62c4.78-.22,9.58-.21,14.36,0,5,.19,7.52,3.42,6.81,8.32a60.48,60.48,0,0,1-1.2,6.28,9.78,9.78,0,0,1-9.55,7.62c-2.77.09-5.55.1-8.32,0-1,0-3.11.75-2.44-1.49.48-1.6-.74-4.47,2.56-4.54,2.27,0,4.54,0,6.81,0,3.6-.08,4.9-2.16,4.91-7.65,0-3.54-2.7-2.3-4.39-2.32-11.34-.14-11.34-.09-13.34,11-.56,3.09-.91,6.23-1.69,9.25-.83,3.25.51,4,3.45,3.9,5.29-.13,10.59-.12,15.87,0,1.05,0,3.55-1.38,3.05,1.62-.33,2,.35,4.79-3.41,4.49-3.26-.25-6.55-.05-9.83-.05Z" transform="translate(-250 -401.6)"/><path class="cls-4" d="M641.48,564.33c-3.27,0-6.55.09-9.82,0-4.9-.16-7.72-3.44-6.95-8.21q1.62-10,3.57-20a9.73,9.73,0,0,1,9.49-8.18c4.78-.19,9.58-.19,14.36,0s7.27,3.24,6.66,8a63.28,63.28,0,0,1-1.09,6.3,9.92,9.92,0,0,1-9.4,7.85c-2.9.11-5.8.08-8.7,0-.94,0-2.72.58-2.27-1.37.38-1.69-.73-4.42,2.39-4.65a45.4,45.4,0,0,1,6.8,0c2.89.22,4-1.11,4.45-3.82,1-6.26,1.14-6.25-5.08-6.25-2.14,0-4.29.12-6.43,0-2.62-.18-3.93.85-4.34,3.48-.9,5.7-1.89,11.38-3,17-.57,2.89.41,3.82,3.29,3.75,5.54-.15,11.09-.09,16.63,0,1,0,3.09-.73,2.52,1.47-.41,1.64.73,4.49-2.47,4.6C648.54,564.43,645,564.33,641.48,564.33Z" transform="translate(-250 -401.6)"/><path class="cls-4" d="M626.61,507.81c-3.28,0-6.55.09-9.82,0-4.8-.17-7.65-3.17-6.9-7.85q2.67-16.69,5.92-33.3c.87-4.48,4.91-7.34,9.72-7.42,6.41-.11,12.83-.05,19.25,0,1.12,0,2.94-.5,2.47,1.65-.38,1.69.63,4.41-2.68,4.41-5.41,0-10.83.13-16.24,0-3.1-.1-4.47.95-5,4.12q-2.22,14.11-5,28.11c-.72,3.58.54,4.41,3.84,4.28,5-.2,10.07-.1,15.11,0,1,0,3-.8,2.4,1.53-.44,1.66.77,4.47-2.51,4.55C633.66,507.88,630.13,507.82,626.61,507.81Z" transform="translate(-250 -401.6)"/><path class="cls-4" d="M691.42,507.82c-2.9,0-5.8.09-8.7-.05-1,0-3.1.87-2.61-1.25.38-1.7-.94-4.81,2.67-4.83,5.29,0,10.59,0,15.88,0,3.9,0,7.46-5.45,5.83-8.94-.59-1.24-1.8-1.2-2.94-1.2-3.41,0-6.81.06-10.22,0-5.32-.12-7.77-2.95-7.21-8.24.92-8.75,4.47-12,13.17-12,4.42,0,8.83-.07,13.24,0,1.08,0,3.35-.92,2.81,1.54-.37,1.71.75,4.7-2.9,4.63-4.66-.1-9.33,0-14,0-3.8,0-5.93,2.62-5.23,6.31.32,1.72,1.63,1.64,2.9,1.64,3.41,0,6.81-.05,10.22,0,5.59.12,8.19,3.29,7.31,8.86-.3,1.86-.58,3.72-1,5.55a10,10,0,0,1-9.77,7.92C697.73,507.89,694.57,507.81,691.42,507.82Z" transform="translate(-250 -401.6)"/><path class="cls-4" d="M671.46,564.34c-2.9,0-5.8.08-8.69-.05-1,0-3.12.88-2.55-1.38.43-1.71-.8-4.73,2.79-4.71,5.17,0,10.34,0,15.5,0a6.73,6.73,0,0,0,6.19-8.65c-.43-1.38-1.55-1.48-2.73-1.48-3.4,0-6.8,0-10.21,0-5.77-.09-8.28-3-7.43-8.65,1.35-9,4.35-11.56,13.52-11.58,4.28,0,8.57-.06,12.85,0,1.11,0,3.27-.89,2.74,1.64-.37,1.79.63,4.62-3,4.53-4.78-.12-9.58-.06-14.36,0-3.15,0-5.83,4-4.64,6.78.57,1.36,1.8,1.16,2.91,1.17,3.4,0,6.81-.06,10.21,0,5.29.13,7.94,3.08,7.3,8.22a42.66,42.66,0,0,1-1.48,7.36c-1.26,4.07-5,6.59-9.49,6.77h-9.45Z" transform="translate(-250 -401.6)"/><path class="cls-4" d="M591.55,527.84c1,0,2,0,3,0,6.76.13,9.15,2.92,8,9.48-1.31,7.8-2.83,15.56-4,23.38-.64,4.22-3.74,2.49-5.83,2.51-3.06,0-1.37-2.35-1.17-3.57,1.22-7.43,2.56-14.84,4-22.23.47-2.5-.33-3.37-2.88-3.45-7.75-.26-7.72-.34-9,7.3-1.2,6.92-2.54,13.82-3.69,20.75-.71,4.32-4,2-6,2.2-2.69.22-1.07-2-.92-3,1.11-6.94,2.39-13.85,3.61-20.77C578.55,529.7,580.76,527.82,591.55,527.84Z" transform="translate(-250 -401.6)"/><path class="cls-4" d="M595.2,507.82c-11.26,0-12.72-1.64-10.87-12.54,1.43-8.41,3-16.8,4.49-25.19.42-2.34,5.2-4.06,7-2.56.79.64.35,1.41.14,2.05-1.14,3.35.34,4.16,3.43,3.8a19.05,19.05,0,0,1,5.28,0c1.26.19,3.76-1.35,3.54,1.51-.15,2.06.24,4.91-3.74,4.58-3.31-.28-7.75-1.55-9.78.59s-1.59,6.36-2.21,9.68c-.56,3-1,5.94-1.64,8.88-.48,2.2.4,3.05,2.51,3,2.52,0,5-.06,7.56,0,1,0,2.76-.56,2.29,1.35-.41,1.67.71,4.4-2.35,4.71C599,508,597.09,507.81,595.2,507.82Z" transform="translate(-250 -401.6)"/><path class="cls-1" d="M265.94,521.81a3.57,3.57,0,0,1,3.36-4,3.47,3.47,0,0,1,4.15,3c2.49,13.15,10.07,22.67,21.16,29.74,2.1,1.34,2.9,3.21,1.47,5.43a3.57,3.57,0,0,1-5.28,1.15c-13-8-21.75-19.12-24.77-34.3C266,522.57,266,522.32,265.94,521.81Z" transform="translate(-250 -401.6)"/><path class="cls-4" d="M612.51,527.82c8.6,0,10.67,2.53,9.15,11.08-1.34,7.51-2.64,15-4,22.55-.42,2.39-5,4.17-7,2.71-1.1-.81-.28-1.84-.13-2.73,1.33-7.77,2.6-15.55,4.15-23.28.64-3.16-.09-4.56-3.43-4.15a2.53,2.53,0,0,1-1.13,0c-1.24-.47-3.74,1.24-3.58-1.57.13-2.28,0-5.4,4-4.62A9.81,9.81,0,0,0,612.51,527.82Z" transform="translate(-250 -401.6)"/><path class="cls-6" d="M633.16,485.47a19.85,19.85,0,0,1-4.5-.07c-1.3-.3-3.91,1.68-3.74-1.66.13-2.51.35-4.9,4.18-4.47,3.59.41,7.26,0,10.89.12,1.18,0,3.23-.68,2.65,1.77-.39,1.66.59,4.38-2.72,4.32C637.67,485.44,635.41,485.47,633.16,485.47Z" transform="translate(-250 -401.6)"/></svg>