<svg width="1504" height="320" viewBox="0 0 1504 320" fill="none" xmlns="http://www.w3.org/2000/svg">
<rect x="276" y="48" width="32" height="232" rx="4" transform="rotate(90 276 48)" fill="black"/>
<rect x="116" y="144" width="32" height="72" rx="4" transform="rotate(90 116 144)" fill="black"/>
<rect x="276" y="144" width="32" height="72" rx="4" transform="rotate(90 276 144)" fill="black"/>
<rect x="276" y="240" width="32" height="232" rx="4" transform="rotate(90 276 240)" fill="black"/>
<rect x="341" y="48" width="32" height="224" rx="4" fill="black"/>
<rect x="437" y="124" width="32" height="72" rx="4" fill="black"/>
<rect x="540" y="48" width="32" height="224" rx="4" fill="black"/>
<rect x="868" y="48" width="32" height="232" rx="4" transform="rotate(90 868 48)" fill="black"/>
<rect x="868" y="144" width="32" height="232" rx="4" transform="rotate(90 868 144)" fill="black"/>
<rect x="868" y="240" width="32" height="232" rx="4" transform="rotate(90 868 240)" fill="black"/>
<rect x="1164" y="48" width="32" height="232" rx="4" transform="rotate(90 1164 48)" fill="black"/>
<rect x="1084" y="144" width="32" height="72" rx="4" transform="rotate(90 1084 144)" fill="black"/>
<rect x="1164" y="240" width="32" height="232" rx="4" transform="rotate(90 1164 240)" fill="black"/>
<rect x="1300" y="48" width="32" height="72" rx="4" transform="rotate(90 1300 48)" fill="black"/>
<rect x="1460" y="48" width="32" height="72" rx="4" transform="rotate(90 1460 48)" fill="black"/>
<rect x="1300" y="240" width="32" height="72" rx="4" transform="rotate(90 1300 240)" fill="black"/>
<rect x="1460" y="240" width="32" height="72" rx="4" transform="rotate(90 1460 240)" fill="black"/>
<rect x="1380" y="144" width="32" height="72" rx="4" transform="rotate(90 1380 144)" fill="black"/>
</svg>
