<?xml version="1.0" encoding="UTF-8"?>
<svg version="1.1" xmlns="http://www.w3.org/2000/svg" width="1350" height="150">
    <path d="M0 0 C8.98084849 -0.0934137 17.96152519 -0.16412177 26.94275665 -0.20724869 C31.11484658 -0.22796606 35.28659984 -0.25598643 39.45849609 -0.30175781 C43.49804404 -0.34579076 47.53727188 -0.36925562 51.57704163 -0.37950897 C53.10454842 -0.38679892 54.63204127 -0.40102799 56.15940857 -0.42292023 C75.46711218 -0.68820538 93.18958186 3.53351804 107.5234375 17.2890625 C111.37160265 21.50140732 114.29824786 25.98880493 117 31 C117.39832031 31.73863281 117.79664063 32.47726563 118.20703125 33.23828125 C123.3747119 43.82525247 124.53784584 55.24612151 124.4375 66.875 C124.43065186 68.10009277 124.42380371 69.32518555 124.41674805 70.58740234 C124.07713239 89.75088363 117.85925777 105.5810967 104.0625 119.0625 C88.18628512 132.60875843 68.55637907 135.17691973 48.4375 135.09765625 C47.03645885 135.09578795 45.63541704 135.094366 44.234375 135.09336853 C40.57165682 135.08957576 36.90897917 135.07977366 33.24627686 135.06866455 C29.49882556 135.05838026 25.75136763 135.05385596 22.00390625 135.04882812 C14.66925249 135.03814804 7.33463195 135.02111119 0 135 C0 132.03 0 129.06 0 126 C5.39958846 123.30020577 11.97483301 124.37657294 18 124 C18 87.04 18 50.08 18 12 C12.06 11.01 12.06 11.01 6 10 C3.03 9.505 3.03 9.505 0 9 C0 6.03 0 3.06 0 0 Z M39 10 C37.65118829 20.55832114 37.85461796 31.15575999 37.8671875 41.77734375 C37.86651252 43.79553743 37.86554089 45.81373103 37.86428833 47.83192444 C37.86282014 52.04705586 37.86493733 56.26216599 37.86962891 60.47729492 C37.87532195 65.85102252 37.87204424 71.22470011 37.86605644 76.59842587 C37.8624239 80.76197173 37.8636018 84.92550596 37.86618423 89.0890522 C37.86684626 91.06917896 37.86605073 93.04930682 37.86370468 95.0294323 C37.85442289 105.06424738 37.86869955 115.01302801 39 125 C55.59968683 125.33199374 72.36620326 125.51326111 85.875 114.3125 C96.99766123 103.592105 101.81231552 88.30154807 102.30078125 73.16796875 C102.48492761 54.58146293 100.92678118 35.32655271 87.6875 20.875 C76.79339123 11.39861772 65.40036088 9.67642342 51.5 9.875 C49.69402344 9.88853516 49.69402344 9.88853516 47.8515625 9.90234375 C44.90082109 9.92576233 41.95055384 9.96033112 39 10 Z " fill="#80888C" transform="translate(418,6)"/>
    <path d="M0 0 C28.91272805 -2.83339407 28.91272805 -2.83339407 36.70898438 1.50878906 C40.91901407 5.47293384 43.39788256 10.36688622 45.8125 15.56347656 C47.62792975 19.28839204 50.01700122 22.52565522 52.4375 25.875 C53.3396144 27.18758467 54.23798959 28.50274623 55.1328125 29.8203125 C58.32536904 34.48738781 61.56685102 39.11974956 64.8125 43.75 C65.401521 44.59030762 65.99054199 45.43061523 66.59741211 46.29638672 C67.79865703 48.00956009 69.00007396 49.72261286 70.20166016 51.43554688 C73.13724982 55.62173121 76.06846454 59.81097605 79 64 C82.63945847 69.2000368 86.27968338 74.39953332 89.921875 79.59765625 C90.56253906 80.51224609 91.20320313 81.42683594 91.86328125 82.36914062 C93.0947772 84.12714571 94.32653606 85.88496667 95.55859375 87.64257812 C96.38810547 88.8269043 96.38810547 88.8269043 97.234375 90.03515625 C97.72131836 90.7300415 98.20826172 91.42492676 98.70996094 92.14086914 C99.82509166 93.74793206 100.91497356 95.37246033 102 97 C102.33 68.62 102.66 40.24 103 11 C98.05 10.67 93.1 10.34 88 10 C86.02 9.67 84.04 9.34 82 9 C82 6.03 82 3.06 82 0 C98.17 0 114.34 0 131 0 C131 2.97 131 5.94 131 9 C129.10507994 9.33848652 127.20901534 9.67056911 125.3125 10 C124.25675781 10.185625 123.20101562 10.37125 122.11328125 10.5625 C119 11 119 11 114 11 C114 52.25 114 93.5 114 136 C106 136 106 136 103.92260742 134.36523438 C103.42607666 133.61564453 102.9295459 132.86605469 102.41796875 132.09375 C101.84868652 131.26875 101.2794043 130.44375 100.69287109 129.59375 C100.13422363 128.7378125 99.57557617 127.881875 99 127 C97.89532891 125.44549363 96.78728575 123.8933777 95.67578125 122.34375 C94.55239395 120.73076162 93.43136878 119.11612598 92.3125 117.5 C91.08232185 115.73287058 89.85184817 113.96594686 88.62109375 112.19921875 C88.01249512 111.32442871 87.40389648 110.44963867 86.77685547 109.54833984 C84.15797719 105.79238333 81.51833168 102.05127037 78.875 98.3125 C78.38813721 97.62349609 77.90127441 96.93449219 77.3996582 96.22460938 C76.42248998 94.84187009 75.44519578 93.45921982 74.46777344 92.07666016 C71.97679014 88.55232484 69.48855097 85.02605299 67 81.5 C66.00001278 80.08332432 65.00001278 78.66665764 64 77.25 C62 74.41666667 60 71.58333333 58 68.75 C57.5047583 68.04842773 57.0095166 67.34685547 56.49926758 66.62402344 C55.50163226 65.21066613 54.50407338 63.79725487 53.5065918 62.38378906 C50.97104354 58.79103769 48.43407776 55.19930153 45.89453125 51.609375 C45.37826172 50.87912109 44.86199219 50.14886719 44.33007812 49.39648438 C43.3696548 48.03804778 42.40877516 46.6799336 41.44726562 45.32226562 C36.9174571 38.9131374 32.46818405 32.45404363 28 26 C27.67 58.01 27.34 90.02 27 123 C33.27 123.66 39.54 124.32 46 125 C46.99 125.495 46.99 125.495 48 126 C48 128.97 48 131.94 48 135 C31.83 135 15.66 135 -1 135 C-1 132.03 -1 129.06 -1 126 C4.37342123 124.75997972 9.51483499 123.783595 15 123 C15.33 85.71 15.66 48.42 16 10 C10.72 9.67 5.44 9.34 0 9 C0 6.03 0 3.06 0 0 Z " fill="#7C8489" transform="translate(267,6)"/>
    <path d="M0 0 C8.51116424 -0.06995564 17.02220546 -0.12303991 25.53358746 -0.15543652 C29.48709562 -0.17099657 33.44040501 -0.19205465 37.39379883 -0.22631836 C41.21935247 -0.25926113 45.04471668 -0.27692534 48.87040138 -0.28463173 C50.31942534 -0.29011337 51.76844064 -0.30081465 53.21738243 -0.31719017 C67.19552947 -0.46867592 79.08512755 1.33201278 91 9 C91.89332031 9.56847656 91.89332031 9.56847656 92.8046875 10.1484375 C98.85359136 14.56758488 103.40861226 22.76641934 105 30 C106.8758144 42.16547592 105.81588204 53.51121638 99 64 C91.60882995 74.0033918 78.9186318 79.01356137 67 81 C58 82 58 82 39 82 C39 95.86 39 109.72 39 124 C44.61 124.33 50.22 124.66 56 125 C56.99 125.495 56.99 125.495 58 126 C58 128.97 58 131.94 58 135 C38.86 135 19.72 135 0 135 C0 132.03 0 129.06 0 126 C5.6960025 123.15199875 12.64266496 124.37396088 19 124 C19 86.71 19 49.42 19 11 C12.73 10.34 6.46 9.68 0 9 C0 6.03 0 3.06 0 0 Z M39 10 C39 30.46 39 50.92 39 72 C60.08088764 72.53956251 60.08088764 72.53956251 78 63 C85.44847418 53.97377021 85.89750608 43.23544643 85 32 C82.87514214 22.92628267 77.96190469 18.0923342 70.35546875 13.11328125 C60.03698544 8.23638615 50.67400282 10 39 10 Z " fill="#757E84" transform="translate(8,6)"/>
    <path d="M0 0 C4.62 0 9.24 0 14 0 C23.55442641 27.00153467 32.80821878 54.1036156 41.98233795 81.23624039 C42.87597511 83.87788249 43.77081042 86.51911602 44.66595459 89.1602478 C46.09318061 93.37204833 47.51707469 97.58496098 48.93838501 101.79876137 C49.46991103 103.3731832 50.00244644 104.94726466 50.53604126 106.52098656 C51.27290211 108.69513975 52.00584597 110.87057516 52.73779297 113.04638672 C53.15221649 114.27348358 53.56664001 115.50058044 53.99362183 116.76486206 C54.84796251 119.51125505 55.50861017 122.16987726 56 125 C56.98742187 125.06058594 57.97484375 125.12117188 58.9921875 125.18359375 C60.91417969 125.30927734 60.91417969 125.30927734 62.875 125.4375 C64.78925781 125.55931641 64.78925781 125.55931641 66.7421875 125.68359375 C70 126 70 126 72 127 C72 129.97 72 132.94 72 136 C53.52 136 35.04 136 16 136 C16 133.03 16 130.06 16 127 C19.29841266 125.35079367 22.9962313 125.33513293 26.625 124.9375 C27.82769531 124.80118164 27.82769531 124.80118164 29.0546875 124.66210938 C31.03607868 124.43802347 33.01799305 124.2185725 35 124 C34.54560547 122.65252686 34.54560547 122.65252686 34.08203125 121.27783203 C32.96146451 117.95017981 31.84358873 114.62164904 30.72753906 111.29248047 C30.24359309 109.85071123 29.75857161 108.40930254 29.27246094 106.96826172 C28.57465288 104.89904721 27.88070002 102.82857457 27.1875 100.7578125 C26.76855469 99.5114502 26.34960938 98.26508789 25.91796875 96.98095703 C25 94 25 94 25 92 C9.82 92 -5.36 92 -21 92 C-21.66 94.97 -22.32 97.94 -23 101 C-23.60844271 102.98276924 -24.25269866 104.95519782 -24.9453125 106.91015625 C-25.29980469 107.91884766 -25.65429688 108.92753906 -26.01953125 109.96679688 C-26.38433594 110.98837891 -26.74914062 112.00996094 -27.125 113.0625 C-27.49753906 114.11888672 -27.87007812 115.17527344 -28.25390625 116.26367188 C-29.16465377 118.84412317 -30.08009705 121.42280144 -31 124 C-29.79601562 124.13277344 -28.59203125 124.26554687 -27.3515625 124.40234375 C-25.77601915 124.5805302 -24.20049953 124.7589265 -22.625 124.9375 C-21.8309375 125.02451172 -21.036875 125.11152344 -20.21875 125.20117188 C-14.2265625 125.88671875 -14.2265625 125.88671875 -12 127 C-12 129.97 -12 132.94 -12 136 C-27.51 136 -43.02 136 -59 136 C-59 133.03 -59 130.06 -59 127 C-56.91666667 126.54427083 -54.83333333 126.08854167 -52.75 125.6328125 C-51.38875 125.31957031 -51.38875 125.31957031 -50 125 C-49.05560987 124.87272223 -49.05560987 124.87272223 -48.09214115 124.74287319 C-45.89537889 124.36892497 -44.0360449 123.91333811 -42 123 C-40.42007379 120.49685566 -39.66923546 118.86312847 -38.85131836 116.11157227 C-38.61063472 115.3993174 -38.36995108 114.68706253 -38.12197399 113.95322418 C-37.32974684 111.58342449 -36.58532145 109.20128455 -35.83984375 106.81640625 C-35.28909213 105.13976364 -34.73531037 103.4641137 -34.17868042 101.78941345 C-32.69971977 97.31437991 -31.26028802 92.82753205 -29.82764053 88.3374939 C-28.34970103 83.7300494 -26.83469659 79.13487334 -25.32104492 74.5390625 C-23.52564568 69.08134114 -21.73276704 63.62288845 -19.95631409 58.15896606 C-15.41991705 44.2074928 -10.69853376 30.33335117 -5.8125 16.5 C-5.19556545 14.74433326 -4.57893434 12.98855986 -3.96264648 11.23266602 C-2.64746694 7.48638383 -1.32388761 3.74325341 0 0 Z M2 25 C-0.06408748 30.90375058 -2.12702949 36.80789977 -4.18896484 42.71240234 C-4.88885442 44.71608989 -5.58904315 46.71967297 -6.28955078 48.72314453 C-13.34688916 65.04693723 -13.34688916 65.04693723 -17 82 C-4.46 82 8.08 82 21 82 C19.39895523 74.66505619 19.39895523 74.66505619 17.30419922 67.57202148 C16.82392776 66.13154701 16.82392776 66.13154701 16.33395386 64.66197205 C15.99429596 63.65848221 15.65463806 62.65499237 15.3046875 61.62109375 C14.95238068 60.56841812 14.60007385 59.51574249 14.23709106 58.4311676 C13.12064437 55.09850131 11.99792842 51.76798718 10.875 48.4375 C10.11286468 46.16615536 9.35114171 43.89467231 8.58984375 41.62304688 C6.73132882 36.0804215 4.86767432 30.53954524 3 25 C2.67 25 2.34 25 2 25 Z " fill="#909598" transform="translate(615,5)"/>
    <path d="M0 0 C4.62 0 9.24 0 14 0 C17.73880663 8.97783811 20.82226636 18.13596682 23.91015625 27.3515625 C24.483157 29.05432299 25.0564409 30.75698822 25.62998962 32.45956421 C27.13897572 36.94101922 28.64475867 41.42354335 30.1496582 45.90637207 C32.52422248 52.97830588 34.90325518 60.04873745 37.28284836 67.11898041 C38.15673814 69.716403 39.0296227 72.31416206 39.90249634 74.91192627 C42.67606507 83.15848694 45.47158319 91.39646432 48.32373047 99.61621094 C48.58465579 100.36931486 48.84558111 101.12241879 49.11441326 101.89834404 C50.33600366 105.42248443 51.5625317 108.94475951 52.79811096 112.46401978 C53.22236862 113.68422821 53.64662628 114.90443665 54.08374023 116.16162109 C54.45587143 117.22319427 54.82800262 118.28476746 55.21141052 119.37850952 C56 122 56 122 56 125 C56.98742187 125.06058594 57.97484375 125.12117188 58.9921875 125.18359375 C60.91417969 125.30927734 60.91417969 125.30927734 62.875 125.4375 C64.78925781 125.55931641 64.78925781 125.55931641 66.7421875 125.68359375 C70 126 70 126 72 127 C72 129.97 72 132.94 72 136 C53.85 136 35.7 136 17 136 C17 133.03 17 130.06 17 127 C18.47643741 126.65477873 19.95639782 126.32462513 21.4375 126 C22.26121094 125.814375 23.08492188 125.62875 23.93359375 125.4375 C27.91802248 124.869021 31.97522166 125 36 125 C32.37 114.44 28.74 103.88 25 93 C9.82 92.67 -5.36 92.34 -21 92 C-21.66 94.97 -22.32 97.94 -23 101 C-23.60844271 102.98276924 -24.25269866 104.95519782 -24.9453125 106.91015625 C-25.29980469 107.91884766 -25.65429688 108.92753906 -26.01953125 109.96679688 C-26.38433594 110.98837891 -26.74914062 112.00996094 -27.125 113.0625 C-27.49753906 114.11888672 -27.87007812 115.17527344 -28.25390625 116.26367188 C-29.16465377 118.84412317 -30.08009705 121.42280144 -31 124 C-29.79601562 124.13277344 -28.59203125 124.26554687 -27.3515625 124.40234375 C-25.77601915 124.5805302 -24.20049953 124.7589265 -22.625 124.9375 C-21.8309375 125.02451172 -21.036875 125.11152344 -20.21875 125.20117188 C-14.2265625 125.88671875 -14.2265625 125.88671875 -12 127 C-12 129.97 -12 132.94 -12 136 C-27.51 136 -43.02 136 -59 136 C-59 133.03 -59 130.06 -59 127 C-56.91666667 126.54427083 -54.83333333 126.08854167 -52.75 125.6328125 C-51.38875 125.31957031 -51.38875 125.31957031 -50 125 C-48.71424072 124.88245361 -47.42848145 124.76490723 -46.10375977 124.64379883 C-43.2730723 123.91605624 -42.27481884 123.42177767 -40.66110229 120.94512939 C-39.46574124 118.02129641 -38.50595484 115.08960673 -37.58984375 112.06640625 C-37.21995331 110.942379 -36.85006287 109.81835175 -36.46896362 108.66026306 C-35.26153639 104.9700776 -34.10006557 101.2670368 -32.9375 97.5625 C-32.11319306 95.00665698 -31.27828029 92.45433627 -30.44213867 89.90234375 C-29.1729498 86.02239355 -27.90626967 82.14175521 -26.6552887 78.25588989 C-23.19144562 67.50051623 -19.52243755 56.82596423 -15.75689697 46.17297363 C-14.23006538 41.85150639 -12.71593539 37.52561094 -11.203125 33.19921875 C-10.92506012 32.40440094 -10.64699524 31.60958313 -10.36050415 30.79067993 C-6.79079831 20.56589368 -3.36659104 10.29337901 0 0 Z M2 25 C-0.22632249 31.50952748 -2.44971413 38.02005078 -4.67114258 44.53125 C-5.42601356 46.7427394 -6.1815368 48.95400627 -6.93774414 51.16503906 C-8.02925529 54.35682775 -9.11836012 57.54942917 -10.20703125 60.7421875 C-10.70877617 62.20686966 -10.70877617 62.20686966 -11.22065735 63.70114136 C-11.54076279 64.64136139 -11.86086823 65.58158142 -12.19067383 66.55029297 C-12.46825027 67.3630368 -12.74582672 68.17578064 -13.03181458 69.01315308 C-14.42758765 73.31910563 -15.69931321 77.66437736 -17 82 C-4.13 82 8.74 82 22 82 C12.82622257 53.38945402 12.82622257 53.38945402 3 25 C2.67 25 2.34 25 2 25 Z " fill="#909598" transform="translate(181,5)"/>
    <path d="M0 0 C1.93166016 0.01740234 1.93166016 0.01740234 3.90234375 0.03515625 C5.83787109 0.04869141 5.83787109 0.04869141 7.8125 0.0625 C8.81152344 0.07410156 9.81054688 0.08570313 10.83984375 0.09765625 C11.14701324 1.00885727 11.45418274 1.92005829 11.7706604 2.85887146 C15.66745633 14.41805982 19.56564586 25.97677792 23.46484375 37.53515625 C23.92811695 38.908444 23.92811695 38.908444 24.40074921 40.30947495 C33.17284456 66.31141487 41.96016078 92.30767073 50.86962891 118.26293945 C51.53436491 120.20512611 52.19069331 122.15020493 52.83984375 124.09765625 C53.75507812 124.23042969 54.6703125 124.36320312 55.61328125 124.5 C57.39605469 124.76490234 57.39605469 124.76490234 59.21484375 125.03515625 C60.98988281 125.29619141 60.98988281 125.29619141 62.80078125 125.5625 C65.83984375 126.09765625 65.83984375 126.09765625 67.83984375 127.09765625 C67.83984375 130.06765625 67.83984375 133.03765625 67.83984375 136.09765625 C49.68984375 136.09765625 31.53984375 136.09765625 12.83984375 136.09765625 C12.83984375 133.12765625 12.83984375 130.15765625 12.83984375 127.09765625 C16.13944516 125.44785555 19.83112259 125.71507264 23.46484375 125.53515625 C24.26664063 125.49197266 25.0684375 125.44878906 25.89453125 125.40429688 C27.87609485 125.29814168 29.85794646 125.1973877 31.83984375 125.09765625 C31.38544922 123.75803833 31.38544922 123.75803833 30.921875 122.39135742 C29.80008966 119.07712894 28.68237021 115.761587 27.56738281 112.44506836 C27.08398129 111.00994982 26.59896558 109.57537396 26.11230469 108.14135742 C25.41306254 106.08002011 24.71964898 104.01680083 24.02734375 101.953125 C23.60839844 100.71199951 23.18945312 99.47087402 22.7578125 98.19213867 C21.83984375 95.09765625 21.83984375 95.09765625 21.83984375 92.09765625 C6.65984375 92.09765625 -8.52015625 92.09765625 -24.16015625 92.09765625 C-25.15015625 95.39765625 -26.14015625 98.69765625 -27.16015625 102.09765625 C-27.75727983 103.9579772 -28.36301185 105.81560312 -28.984375 107.66796875 C-29.44360352 109.04082031 -29.44360352 109.04082031 -29.91210938 110.44140625 C-30.37520508 111.818125 -30.37520508 111.818125 -30.84765625 113.22265625 C-31.16798828 114.17914063 -31.48832031 115.135625 -31.81835938 116.12109375 C-32.59756658 118.44708541 -33.37818299 120.77259336 -34.16015625 123.09765625 C-33.56920166 123.22897949 -32.97824707 123.36030273 -32.36938477 123.49560547 C-26.96630859 124.69628906 -21.56323242 125.89697266 -16.16015625 127.09765625 C-16.16015625 130.06765625 -16.16015625 133.03765625 -16.16015625 136.09765625 C-31.34015625 136.09765625 -46.52015625 136.09765625 -62.16015625 136.09765625 C-62.16015625 127.09765625 -62.16015625 127.09765625 -61.16015625 126.09765625 C-58.47152961 125.69771939 -55.79663408 125.34631082 -53.09765625 125.03515625 C-51.95973633 124.89883789 -51.95973633 124.89883789 -50.79882812 124.75976562 C-48.91972615 124.53521885 -47.0399953 124.31594647 -45.16015625 124.09765625 C-45.04632599 123.53833405 -44.93249573 122.97901184 -44.81521606 122.40274048 C-43.71795912 117.21683097 -42.32701643 112.29006373 -40.52734375 107.30859375 C-39.97409591 105.74463781 -39.42087481 104.18067242 -38.86767578 102.61669922 C-38.57072815 101.7834613 -38.27378052 100.95022339 -37.96783447 100.09173584 C-32.45513161 84.611362 -27.11362453 69.0748265 -21.86328125 53.50390625 C-21.592383 52.70071583 -21.32148476 51.89752541 -21.04237747 51.06999588 C-18.29750059 42.92983897 -15.55823123 34.7878098 -12.82498169 26.64374161 C-11.79068833 23.56372197 -10.7541482 20.48446144 -9.71715546 17.40534973 C-9.2282324 15.95155824 -8.74043395 14.49738802 -8.25379181 13.04283142 C-7.58475479 11.04311877 -6.9121767 9.04463113 -6.23876953 7.04638672 C-5.85987579 5.91699677 -5.48098206 4.78760681 -5.09060669 3.62399292 C-3.79912836 0.11740199 -3.79912836 0.11740199 0 0 Z M-2.16015625 26.09765625 C-4.51244584 32.9543514 -6.8598078 39.81271226 -9.20088196 46.67324543 C-10.28807478 49.85876424 -11.37696066 53.04368317 -12.46972656 56.22729492 C-13.72499098 59.88705962 -14.97439968 63.54877762 -16.22265625 67.2109375 C-16.61638428 68.35476395 -17.0101123 69.49859039 -17.41577148 70.67707825 C-17.77614502 71.73795151 -18.13651855 72.79882477 -18.5078125 73.8918457 C-18.82758057 74.82672318 -19.14734863 75.76160065 -19.47680664 76.72480774 C-20.29852609 79.16658093 -20.29852609 79.16658093 -20.16015625 82.09765625 C-7.62015625 82.09765625 4.91984375 82.09765625 17.83984375 82.09765625 C15.81976516 74.69070143 13.71248367 67.43947008 11.265625 60.1796875 C10.93692917 59.1964299 10.60823334 58.2131723 10.26957703 57.20011902 C9.2333477 54.10250217 8.19292488 51.00631356 7.15234375 47.91015625 C6.44307987 45.7924113 5.734093 43.67457355 5.02539062 41.55664062 C3.30007156 36.40257018 1.5713203 31.24966118 -0.16015625 26.09765625 C-0.82015625 26.09765625 -1.48015625 26.09765625 -2.16015625 26.09765625 Z " fill="#909598" transform="translate(1202.16015625,4.90234375)"/>
    <path d="M0 0 C4.62 0 9.24 0 14 0 C14.43119141 1.26851807 14.86238281 2.53703613 15.30664062 3.84399414 C19.33686455 15.70017275 23.36782196 27.55610175 27.39953613 39.41177368 C29.34354453 45.12839597 31.28734649 50.84508816 33.23046875 56.56201172 C34.98234706 61.71621536 36.73477953 66.87023017 38.48779297 72.02404785 C39.16142064 74.00455545 39.83492368 75.98510544 40.50830078 77.96569824 C43.64847224 87.20025101 46.79115671 96.43357427 50 105.64453125 C50.43119141 106.88267578 50.86238281 108.12082031 51.30664062 109.39648438 C52.07303099 111.59029248 52.84231535 113.78309292 53.61523438 115.97460938 C54.09959961 117.3580957 54.09959961 117.3580957 54.59375 118.76953125 C54.86896484 119.54917236 55.14417969 120.32881348 55.42773438 121.13208008 C56 123 56 123 56 125 C56.91523437 125.06058594 57.83046875 125.12117188 58.7734375 125.18359375 C59.96195313 125.26738281 61.15046875 125.35117188 62.375 125.4375 C63.55835938 125.51871094 64.74171875 125.59992188 65.9609375 125.68359375 C69 126 69 126 71 127 C71 129.97 71 132.94 71 136 C52.85 136 34.7 136 16 136 C16 133.03 16 130.06 16 127 C19.29960141 125.3501993 22.99127884 125.61741639 26.625 125.4375 C27.42679688 125.39431641 28.22859375 125.35113281 29.0546875 125.30664062 C31.0362511 125.20048543 33.01810271 125.09973145 35 125 C34.69707031 124.0713916 34.39414063 123.1427832 34.08203125 122.18603516 C32.96091523 118.74672415 31.84364288 115.30617484 30.72753906 111.86523438 C30.24356483 110.37498352 29.75854313 108.88507243 29.27246094 107.39550781 C28.57472733 105.25674071 27.88074636 103.11678763 27.1875 100.9765625 C26.96876221 100.30879791 26.75002441 99.64103333 26.5246582 98.95303345 C25 94.22774341 25 94.22774341 25 92 C9.82 92 -5.36 92 -21 92 C-21.99 95.63 -22.98 99.26 -24 103 C-24.58683434 104.89602722 -25.18939875 106.78746421 -25.82421875 108.66796875 C-26.13037109 109.57998047 -26.43652344 110.49199219 -26.75195312 111.43164062 C-27.06068359 112.34107422 -27.36941406 113.25050781 -27.6875 114.1875 C-28.00783203 115.13947266 -28.32816406 116.09144531 -28.65820312 117.07226562 C-29.43601033 119.38246912 -30.21662996 121.69167819 -31 124 C-29.78441406 124.13277344 -28.56882812 124.26554687 -27.31640625 124.40234375 C-25.73174516 124.58050091 -24.1471111 124.75889875 -22.5625 124.9375 C-21.76005859 125.02451172 -20.95761719 125.11152344 -20.13085938 125.20117188 C-14.11328125 125.88671875 -14.11328125 125.88671875 -13 127 C-13 129.97 -13 132.94 -13 136 C-28.18 136 -43.36 136 -59 136 C-59 133.03 -59 130.06 -59 127 C-53.32579946 125.45249076 -47.85099369 124.54091318 -42 124 C-41.82639954 123.33536743 -41.65279907 122.67073486 -41.47393799 121.98596191 C-39.66109018 115.17716483 -37.57797222 108.50876145 -35.296875 101.84375 C-34.94206055 100.79886414 -34.58724609 99.75397827 -34.22167969 98.6774292 C-33.0679795 95.28374047 -31.90921648 91.89180805 -30.75 88.5 C-29.94424386 86.13512252 -29.13858087 83.77021329 -28.33300781 81.40527344 C-19.05848568 54.21081703 -9.57496239 27.08992539 0 0 Z M1 26 C0.72811104 26.8189978 0.72811104 26.8189978 0.45072937 27.65454102 C-1.44563348 33.36584896 -3.34415359 39.07643658 -5.24389648 44.78662109 C-5.95147525 46.91436879 -6.65851406 49.04229612 -7.36499023 51.17041016 C-8.38381411 54.23908756 -9.4046138 57.30710179 -10.42578125 60.375 C-10.8947155 61.78954468 -10.8947155 61.78954468 -11.37312317 63.23266602 C-12.74521785 67.34929542 -14.14962421 71.43232235 -15.72338867 75.4765625 C-17.17032481 78.84549866 -17.17032481 78.84549866 -17 82 C-4.46 82 8.08 82 21 82 C19.41238304 74.69978597 19.41238304 74.69978597 17.30419922 67.66381836 C16.82392776 66.25337502 16.82392776 66.25337502 16.33395386 64.81443787 C15.99429596 63.83282181 15.65463806 62.85120575 15.3046875 61.83984375 C14.95238068 60.80936417 14.60007385 59.77888458 14.23709106 58.71717834 C13.12089659 55.45572168 11.99806242 52.19659728 10.875 48.9375 C10.11283986 46.71434398 9.35111667 44.49103811 8.58984375 42.26757812 C6.73161222 36.84330886 4.86793735 31.42093405 3 26 C2.34 26 1.68 26 1 26 Z " fill="#909598" transform="translate(998,5)"/>
    <path d="M0 0 C18.81 0 37.62 0 57 0 C57 2.97 57 5.94 57 9 C50.73 9.66 44.46 10.32 38 11 C38 48.29 38 85.58 38 124 C53.18 124 68.36 124 84 124 C84.33 120.7 84.66 117.4 85 114 C85.6398156 110.76751797 86.30825861 107.57852705 87.0625 104.375 C87.24876953 103.56160156 87.43503906 102.74820313 87.62695312 101.91015625 C88.07919442 99.93884803 88.53879672 97.96923077 89 96 C93.29 96 97.58 96 102 96 C102.09441761 103.2701556 101.93589008 110.49121176 101.5625 117.75 C101.52326416 118.54124268 101.48402832 119.33248535 101.44360352 120.14770508 C101.40162842 120.91880615 101.35965332 121.68990723 101.31640625 122.484375 C101.27974854 123.16209961 101.24309082 123.83982422 101.20532227 124.53808594 C100.913572 128.0363138 100.43540814 131.51673484 100 135 C67 135 34 135 0 135 C0 132.03 0 129.06 0 126 C5.39958846 123.30020577 11.97483301 124.37657294 18 124 C18 86.71 18 49.42 18 11 C12.06 10.34 6.12 9.68 0 9 C0 6.03 0 3.06 0 0 Z " fill="#8F9597" transform="translate(824,6)"/>
    <path d="M0 0 C18.81 0 37.62 0 57 0 C57 2.97 57 5.94 57 9 C50.73 9.66 44.46 10.32 38 11 C38 48.29 38 85.58 38 124 C53.18 124 68.36 124 84 124 C84.33 120.7 84.66 117.4 85 114 C85.6398156 110.76751797 86.30825861 107.57852705 87.0625 104.375 C87.24876953 103.56160156 87.43503906 102.74820313 87.62695312 101.91015625 C88.07919442 99.93884803 88.53879672 97.96923077 89 96 C93.29 96 97.58 96 102 96 C102.09441761 103.2701556 101.93589008 110.49121176 101.5625 117.75 C101.52326416 118.54124268 101.48402832 119.33248535 101.44360352 120.14770508 C101.40162842 120.91880615 101.35965332 121.68990723 101.31640625 122.484375 C101.27974854 123.16209961 101.24309082 123.83982422 101.20532227 124.53808594 C100.913572 128.0363138 100.43540814 131.51673484 100 135 C67 135 34 135 0 135 C0 132.03 0 129.06 0 126 C5.39958846 123.30020577 11.97483301 124.37657294 18 124 C18 86.71 18 49.42 18 11 C12.06 10.34 6.12 9.68 0 9 C0 6.03 0 3.06 0 0 Z " fill="#8F9597" transform="translate(701,6)"/>
    <path d="M0 0 C19.14 0 38.28 0 58 0 C58 2.97 58 5.94 58 9 C51.73 9.66 45.46 10.32 39 11 C39 48.29 39 85.58 39 124 C44.28 124.33 49.56 124.66 55 125 C55.99 125.33 56.98 125.66 58 126 C58 128.97 58 131.94 58 135 C38.86 135 19.72 135 0 135 C0 132.03 0 129.06 0 126 C5.6960025 123.15199875 12.64266496 124.37396088 19 124 C19 86.71 19 49.42 19 11 C12.73 10.34 6.46 9.68 0 9 C0 6.03 0 3.06 0 0 Z " fill="#81888D" transform="translate(1284,6)"/>
    <path d="M0 0 C2.95921789 3.80470872 3.7525146 7.21528227 4 12 C3.2437682 17.3881516 1.41874634 20.59883916 -2.8046875 23.89453125 C-7.07915364 26.04697594 -11.37457381 25.81625168 -16 25 C-20.42977671 22.8642148 -23.19613671 20.60987286 -25 16 C-25.54454427 11.41675237 -25.58720242 7.42164795 -23.8125 3.125 C-17.30253535 -4.50737235 -8.29937272 -6.63949818 0 0 Z " fill="#C7C4C0" transform="translate(1116,118)"/>
</svg>

