<?xml version="1.0" encoding="UTF-8"?>
<svg version="1.1" xmlns="http://www.w3.org/2000/svg" width="2035" height="285">
<path d="M0 0 C10.91936359 -0.06996778 21.83867254 -0.12304623 32.7582159 -0.15543652 C37.83034709 -0.17099382 42.90232324 -0.19204711 47.97436523 -0.22631836 C52.88273675 -0.25927054 57.79096055 -0.27692738 62.69943428 -0.28463173 C64.55822635 -0.29011167 66.4170117 -0.30080933 68.27573967 -0.31719017 C85.03487111 -0.45881301 100.54759042 0.9319909 116 8 C117.39798828 8.62841797 117.39798828 8.62841797 118.82421875 9.26953125 C135.70308919 17.62469251 147.78973139 33.4586434 154 51 C156.80881716 60.39873433 158.66511986 70.19080269 159 80 C159.0515625 81.12277344 159.103125 82.24554688 159.15625 83.40234375 C159.7436551 106.72722141 153.07006192 129.67975498 137 147 C119.96596633 164.48156164 97.0162622 171.55936813 73.04211426 172.08712769 C68.3887173 172.12779215 63.73551869 172.1127158 59.08203125 172.09765625 C57.37139426 172.09578737 55.66075674 172.09436569 53.95011902 172.09336853 C49.48353556 172.08958037 45.01698547 172.0797824 40.55041504 172.06866455 C35.97827607 172.05837015 31.40613163 172.05385383 26.83398438 172.04882812 C17.88930839 172.03815621 8.94465699 172.02112515 0 172 C0 168.04 0 164.08 0 160 C2.68693722 159.66148822 5.37440289 159.329064 8.0625 159 C9.19075195 158.85691406 9.19075195 158.85691406 10.34179688 158.7109375 C11.45844727 158.57558594 11.45844727 158.57558594 12.59765625 158.4375 C13.27320557 158.35371094 13.94875488 158.26992187 14.64477539 158.18359375 C17.75435073 157.94119708 20.88099136 158 24 158 C24 110.48 24 62.96 24 14 C16.74 13.34 9.48 12.68 2 12 C1.34 11.67 0.68 11.34 0 11 C0 7.37 0 3.74 0 0 Z M49 13 C49 61.18 49 109.36 49 159 C84.22415792 159.62705516 84.22415792 159.62705516 112.8203125 142.44140625 C125.54695949 128.18664932 130.15775367 109.68734041 131 91 C131.04125 90.22914063 131.0825 89.45828125 131.125 88.6640625 C131.68729796 68.06989956 127.36211952 45.53232951 113.6875 29.5625 C104.8747088 20.48129891 95.372354 15.4744708 83 13 C71.78 13 60.56 13 49 13 Z " fill="#80878C" transform="translate(859,67)"/>
<path d="M0 0 C5.90323578 -0.42390665 11.79746384 -0.73015544 17.71240234 -0.93383789 C19.71755256 -1.0187691 21.7216669 -1.13438963 23.72314453 -1.2824707 C39.83187986 -2.44342445 39.83187986 -2.44342445 45.02960205 1.56533813 C48.72194896 5.57101346 51.35861496 10.12760393 53.88647461 14.92868042 C55.29980292 17.55767715 56.97459525 19.93016503 58.7421875 22.33203125 C59.78680038 23.82528161 60.83107641 25.31876768 61.875 26.8125 C62.4510498 27.63596924 63.02709961 28.45943848 63.62060547 29.30786133 C66.01127711 32.72537472 68.40111522 36.14347068 70.79101562 39.56152344 C76.8448852 48.21888774 82.90229521 56.87343363 89 65.5 C95.09043346 74.11627945 101.14047828 82.76059302 107.18701172 91.40771484 C110.26902987 95.81451106 113.35339253 100.21966587 116.4375 104.625 C117.54037533 106.20051331 118.64324027 107.77603389 119.74609375 109.3515625 C121.35677734 111.65253906 121.35677734 111.65253906 123 114 C125.31 117.3 127.62 120.6 130 124 C130.495 69.55 130.495 69.55 131 14 C125.72 13.67 120.44 13.34 115 13 C106.18987342 12.18987342 106.18987342 12.18987342 105 11 C105 7.37 105 3.74 105 0 C125.46 0 145.92 0 167 0 C167 3.63 167 7.26 167 11 C159.4465745 12.92036241 153.03509298 13.38191592 145 14 C145 66.47 145 118.94 145 173 C135 173 135 173 132.22265625 170.71875 C131.50980469 169.6565625 130.79695312 168.594375 130.0625 167.5 C129.65757324 166.91831055 129.25264648 166.33662109 128.83544922 165.73730469 C127.97164073 164.48800308 127.12299649 163.22810183 126.28857422 161.95898438 C125.00492396 160.00748576 123.68391895 158.08765682 122.34765625 156.171875 C120.4984159 153.51442588 118.66650031 150.84631203 116.84765625 148.16796875 C113.96517822 143.93336458 111.02193025 139.74357229 108.0625 135.5625 C107.56379395 134.85770508 107.06508789 134.15291016 106.55126953 133.42675781 C105.53981752 131.99802077 104.52809836 130.5694728 103.51611328 129.14111328 C101.00656077 125.59702704 98.50359782 122.0482939 96 118.5 C95.00003196 117.08331078 94.00003195 115.66664412 93 114.25 C78 93 78 93 63 71.75 C62.50459717 71.04818604 62.00919434 70.34637207 61.4987793 69.62329102 C60.50282273 68.21233902 59.50689157 66.80136909 58.51098633 65.39038086 C55.94933426 61.76112916 53.38718714 58.13222851 50.82421875 54.50390625 C50.29892578 53.76011719 49.77363281 53.01632813 49.23242188 52.25 C48.24561102 50.8527457 47.25864723 49.45559939 46.27148438 48.05859375 C42.49889543 42.71630983 38.7505876 37.35798228 35 32 C34.67 73.25 34.34 114.5 34 157 C40.6 157.66 47.2 158.32 54 159 C56.31 159.33 58.62 159.66 61 160 C61 163.96 61 167.92 61 172 C40.54 172 20.08 172 -1 172 C-1 168.04 -1 164.08 -1 160 C9.395 158.515 9.395 158.515 20 157 C20.33 109.48 20.66 61.96 21 13 C14.73 12.67 8.46 12.34 2 12 C1.34 11.67 0.68 11.34 0 11 C0 7.37 0 3.74 0 0 Z " fill="#7C8489" transform="translate(667,67)"/>
<path d="M0 0 C10.13705745 -0.07001732 20.27405582 -0.12307068 30.41130733 -0.15543652 C35.12024007 -0.17098333 39.82900538 -0.19201646 44.5378418 -0.22631836 C49.09608631 -0.25930922 53.65417148 -0.27693519 58.21252632 -0.28463173 C59.93734808 -0.29010494 61.66216275 -0.30078861 63.38691521 -0.31719017 C85.1631661 -0.51572465 105.50018097 2.17664312 121.92578125 17.8359375 C131.46140995 27.84120102 134.49451586 40.80380217 134.1875 54.3125 C133.25645523 67.65747503 128.47329071 78.93480708 118.7109375 88.1640625 C102.74829617 101.69430134 82.69766973 104.19488612 62.5 104.0625 C58.045 104.041875 53.59 104.02125 49 104 C49 121.82 49 139.64 49 158 C54.28 158.33 59.56 158.66 65 159 C67.67057267 159.30043943 70.34071002 159.61218688 73 160 C73 163.96 73 167.92 73 172 C48.91 172 24.82 172 0 172 C0 168.04 0 164.08 0 160 C2.68693722 159.66148822 5.37440289 159.329064 8.0625 159 C9.19075195 158.85691406 9.19075195 158.85691406 10.34179688 158.7109375 C11.45844727 158.57558594 11.45844727 158.57558594 12.59765625 158.4375 C13.27320557 158.35371094 13.94875488 158.26992187 14.64477539 158.18359375 C17.75435073 157.94119708 20.88099136 158 24 158 C24 110.48 24 62.96 24 14 C16.74 13.34 9.48 12.68 2 12 C1.34 11.67 0.68 11.34 0 11 C0 7.37 0 3.74 0 0 Z M49 13 C49 39.07 49 65.14 49 92 C76.06895279 92.55949295 76.06895279 92.55949295 99 80 C107.77783789 69.80895011 108.88622729 57.85555868 108.16845703 44.9296875 C107.35257598 35.5837109 103.0679598 27.69659318 96.375 21.25 C83.13326179 10.22360963 64.9520282 13 49 13 Z " fill="#757E84" transform="translate(338,67)"/>
<path d="M0 0 C5.94 0 11.88 0 18 0 C18.69448242 2.06362793 19.38896484 4.12725586 20.10449219 6.25341797 C22.45307248 13.2309078 24.80444651 20.20745407 27.15703964 27.18359184 C28.57715465 31.39491738 29.99645283 35.60651372 31.41357422 39.81884766 C33.0595236 44.71085679 34.70809199 49.6019761 36.359375 54.4921875 C36.63238937 55.30070915 36.90540375 56.1092308 37.18669128 56.94225311 C41.74740154 70.43329361 46.43832757 83.87563803 51.23138428 97.28585815 C51.59041714 98.29366648 51.59041714 98.29366648 51.95670319 99.32183456 C52.59650826 101.11691785 53.23897066 102.91105341 53.88165283 104.70510864 C55.03732428 108.10996536 56.02447051 111.53975044 57 115 C57.48964953 116.50833813 57.99222128 118.01259153 58.51220703 119.51074219 C58.7923465 120.32138123 59.07248596 121.13202026 59.3611145 121.96722412 C59.65702484 122.81850891 59.95293518 123.6697937 60.2578125 124.546875 C60.88948217 126.37885135 61.52098782 128.21088426 62.15234375 130.04296875 C63.14244974 132.9096882 64.13398611 135.77589136 65.12841797 138.64111328 C66.09228194 141.42081542 67.05044909 144.20242849 68.0078125 146.984375 C68.4577507 148.27344757 68.4577507 148.27344757 68.91677856 149.58856201 C69.19061371 150.38659241 69.46444885 151.1846228 69.74658203 152.00683594 C69.98925812 152.70742126 70.2319342 153.40800659 70.48196411 154.12982178 C71 156 71 156 71 159 C77.6 159.66 84.2 160.32 91 161 C91 164.96 91 168.92 91 173 C67.9 173 44.8 173 21 173 C21 169.04 21 165.08 21 161 C23.47835631 160.65941607 25.9573995 160.32743521 28.4375 160 C29.46907227 159.85691406 29.46907227 159.85691406 30.52148438 159.7109375 C34.29340252 159.21971095 37.96732234 158.94802958 41.77368164 158.97265625 C42.56948135 158.976604 43.36528107 158.98055176 44.18519592 158.98461914 C44.78408127 158.98969482 45.38296661 158.99477051 46 159 C45.57589844 157.79875488 45.15179687 156.59750977 44.71484375 155.35986328 C43.14627079 150.91435213 41.58178804 146.46741083 40.01855469 142.02001953 C39.34063916 140.0931925 38.66160618 138.16675824 37.98144531 136.24072266 C37.00553968 133.47660509 36.03362537 130.71111256 35.0625 127.9453125 C34.75626709 127.0806839 34.45003418 126.2160553 34.13452148 125.32522583 C33.85423096 124.52454681 33.57394043 123.7238678 33.28515625 122.89892578 C33.03644775 122.1927713 32.78773926 121.48661682 32.53149414 120.75906372 C32 119 32 119 32 117 C3.29 117.495 3.29 117.495 -26 118 C-29.86244687 129.66638449 -29.86244687 129.66638449 -33.71826172 141.33496094 C-34.20516419 142.80151181 -34.69229103 144.26798823 -35.1796875 145.734375 C-35.42855713 146.49121582 -35.67742676 147.24805664 -35.93383789 148.02783203 C-37.08334729 151.47750176 -38.23097261 154.81428263 -40 158 C-38.54400391 157.95359375 -38.54400391 157.95359375 -37.05859375 157.90625 C-32.62276958 157.90625 -28.40849476 158.6732555 -24.0625 159.5 C-23.28326172 159.64308594 -22.50402344 159.78617188 -21.70117188 159.93359375 C-19.7997579 160.28354724 -17.89972607 160.64099665 -16 161 C-16 164.96 -16 168.92 -16 173 C-35.64823972 174.51348201 -55.35176028 174.51348201 -75 173 C-75 169.04 -75 165.08 -75 161 C-67.74 160.01 -60.48 159.02 -53 158 C-52.59942383 156.46923828 -52.19884766 154.93847656 -51.78613281 153.36132812 C-49.92739223 146.55526096 -47.69446508 139.89603822 -45.421875 133.21875 C-44.97369618 131.89480464 -44.5257602 130.57077705 -44.07804871 129.24667358 C-42.88608768 125.7246272 -41.68979491 122.20406723 -40.49241257 118.68386078 C-39.74537349 116.48639078 -38.99967622 114.28847001 -38.25442505 112.09039307 C-31.94237248 93.47431171 -25.56211474 74.88411145 -19.04623413 56.33822632 C-12.47561756 37.63234088 -6.21289746 18.82727948 0 0 Z M2 32 C-1.13098686 41.23937905 -4.26035589 50.47930426 -7.38763428 59.71993923 C-8.83965141 64.01026118 -10.29223486 68.30038967 -11.74609375 72.59008789 C-13.1479261 76.72634614 -14.5482954 80.86309699 -15.94763184 85.00020027 C-16.48298565 86.5821011 -17.01887526 88.1638207 -17.55529785 89.74535942 C-18.30389016 91.95273428 -19.05061109 94.16073356 -19.796875 96.36889648 C-20.02129272 97.02920364 -20.24571045 97.6895108 -20.47692871 98.36982727 C-21.54973219 101.12426255 -21.54973219 101.12426255 -22 104 C-5.83 104 10.34 104 27 104 C25.77042765 98.46692444 24.62039297 93.4885212 22.84521484 88.19506836 C22.64009781 87.57927917 22.43498077 86.96348999 22.22364807 86.32904053 C21.55700993 84.33118542 20.88405758 82.33552321 20.2109375 80.33984375 C19.7425754 78.94036358 19.27461538 77.5407488 18.80703735 76.14100647 C17.58464329 72.48519293 16.35685152 68.83121526 15.12786865 65.1776123 C13.87099849 61.43787588 12.61932189 57.69640225 11.3671875 53.95507812 C8.91649487 46.63502334 6.46008865 39.31690309 4 32 C3.34 32 2.68 32 2 32 Z " fill="#909598" transform="translate(1110,66)"/>
<path d="M0 0 C5.94 0 11.88 0 18 0 C18.80518066 2.39048584 19.61036133 4.78097168 20.43994141 7.24389648 C23.16519492 15.33443279 25.89140125 23.42464782 28.61802101 31.51472378 C30.26368298 36.3976099 31.90906845 41.28058875 33.55371094 46.16381836 C40.53280749 66.8852358 47.52917212 87.60051478 54.59375 108.29296875 C55.01937666 109.54021131 55.01937666 109.54021131 55.45360184 110.81265068 C60.33591787 125.11493831 65.29220203 139.39056785 70.30419922 153.64794922 C71 156 71 156 71 159 C77.6 159.66 84.2 160.32 91 161 C91 164.96 91 168.92 91 173 C67.9 173 44.8 173 21 173 C21 169.04 21 165.08 21 161 C28.92 160.01 36.84 159.02 45 158 C44.0615625 155.20789063 43.123125 152.41578125 42.15625 149.5390625 C41.25204643 146.8420375 40.34887344 144.14466947 39.44580078 141.44726562 C38.81634564 139.56897409 38.18581528 137.69104254 37.55419922 135.81347656 C36.64790226 133.11877256 35.74544652 130.42280883 34.84375 127.7265625 C34.55939087 126.88380768 34.27503174 126.04105286 33.98205566 125.17276001 C32 119.22774341 32 119.22774341 32 117 C12.53 117 -6.94 117 -27 117 C-27.66 119.97 -28.32 122.94 -29 126 C-29.82819335 128.65116691 -30.67950984 131.26232428 -31.6015625 133.87890625 C-31.9635524 134.92521461 -31.9635524 134.92521461 -32.33285522 135.99266052 C-33.09225726 138.18425413 -33.85848381 140.37338582 -34.625 142.5625 C-35.14629022 144.06299239 -35.66712738 145.56364226 -36.1875 147.06445312 C-37.45228699 150.71179269 -38.72630962 154.35571196 -40 158 C-32.08 158.99 -24.16 159.98 -16 161 C-16 164.96 -16 168.92 -16 173 C-35.47 173 -54.94 173 -75 173 C-75 169.04 -75 165.08 -75 161 C-67.74 160.01 -60.48 159.02 -53 158 C-52.505 155.03 -52.505 155.03 -52 152 C-51.22294734 149.54423199 -50.40981943 147.13483134 -49.53515625 144.71484375 C-48.98980024 143.17492453 -48.4445601 141.63496427 -47.89941406 140.0949707 C-47.60264771 139.26228668 -47.30588135 138.42960266 -47.00012207 137.57168579 C-38.12226111 112.62993587 -29.71203143 87.52918016 -21.26814365 62.43828678 C-19.92399212 58.4443874 -18.57932289 54.45066252 -17.234375 50.45703125 C-16.97404417 49.68386251 -16.71371334 48.91069378 -16.4454937 48.11409569 C-11.03521009 32.05137852 -5.5319173 16.02117746 0 0 Z M2 32 C-1.13098686 41.23937905 -4.26035589 50.47930426 -7.38763428 59.71993923 C-8.83965141 64.01026118 -10.29223486 68.30038967 -11.74609375 72.59008789 C-13.1479261 76.72634614 -14.5482954 80.86309699 -15.94763184 85.00020027 C-16.48298565 86.5821011 -17.01887526 88.1638207 -17.55529785 89.74535942 C-18.30389016 91.95273428 -19.05061109 94.16073356 -19.796875 96.36889648 C-20.02129272 97.02920364 -20.24571045 97.6895108 -20.47692871 98.36982727 C-21.54973219 101.12426255 -21.54973219 101.12426255 -22 104 C-5.83 104 10.34 104 27 104 C25.77042765 98.46692444 24.62039297 93.4885212 22.84521484 88.19506836 C22.64009781 87.57927917 22.43498077 86.96348999 22.22364807 86.32904053 C21.55700993 84.33118542 20.88405758 82.33552321 20.2109375 80.33984375 C19.7425754 78.94036358 19.27461538 77.5407488 18.80703735 76.14100647 C17.58464329 72.48519293 16.35685152 68.83121526 15.12786865 65.1776123 C13.87099849 61.43787588 12.61932189 57.69640225 11.3671875 53.95507812 C8.91649487 46.63502334 6.46008865 39.31690309 4 32 C3.34 32 2.68 32 2 32 Z " fill="#909598" transform="translate(558,66)"/>
<path d="M0 0 C5.61 0 11.22 0 17 0 C20.03679898 7.39947005 22.72736287 14.86043892 25.2734375 22.44140625 C25.67360077 23.62526413 26.07376404 24.80912201 26.48605347 26.02885437 C27.34123616 28.55981263 28.1954581 31.09106945 29.04797363 33.6229248 C30.39338003 37.61839955 31.74266141 41.61255855 33.09277344 45.60644531 C33.54797453 46.95309418 34.00317473 48.29974335 34.45837402 49.64639282 C34.68322983 50.31157551 34.90808563 50.97675819 35.13975525 51.66209793 C35.81987727 53.67449345 36.49964594 55.68700802 37.17932129 57.69955444 C40.57612542 67.75631603 43.99343005 77.80594745 47.42895508 87.84954834 C48.24685448 90.24080359 49.06397314 92.63232425 49.88085938 95.02392578 C52.29967195 102.10461701 54.72037295 109.1846549 57.14550781 116.26318359 C59.02466075 121.74835151 60.90080796 127.23454038 62.77526855 132.72131348 C63.50404614 134.85263804 64.23393188 136.98358404 64.96496582 139.11413574 C65.97682158 142.06342887 66.98493084 145.01397733 67.9921875 147.96484375 C68.2976651 148.85225754 68.6031427 149.73967133 68.9178772 150.65397644 C69.19360565 151.4641774 69.46933411 152.27437836 69.75341797 153.10913086 C69.99542938 153.81597519 70.2374408 154.52281952 70.48678589 155.25108337 C71 157 71 157 71 159 C77.6 159.66 84.2 160.32 91 161 C91 164.96 91 168.92 91 173 C67.9 173 44.8 173 21 173 C21 169.04 21 165.08 21 161 C28.92 160.01 36.84 159.02 45 158 C44.0615625 155.20789063 43.123125 152.41578125 42.15625 149.5390625 C41.25204643 146.8420375 40.34887344 144.14466947 39.44580078 141.44726562 C38.81634564 139.56897409 38.18581528 137.69104254 37.55419922 135.81347656 C36.64790226 133.11877256 35.74544652 130.42280883 34.84375 127.7265625 C34.55939087 126.88380768 34.27503174 126.04105286 33.98205566 125.17276001 C32 119.22774341 32 119.22774341 32 117 C12.53 117 -6.94 117 -27 117 C-27.66 119.97 -28.32 122.94 -29 126 C-29.82819335 128.65116691 -30.67950984 131.26232428 -31.6015625 133.87890625 C-31.9635524 134.92521461 -31.9635524 134.92521461 -32.33285522 135.99266052 C-33.09225726 138.18425413 -33.85848381 140.37338582 -34.625 142.5625 C-35.14629022 144.06299239 -35.66712738 145.56364226 -36.1875 147.06445312 C-37.45228699 150.71179269 -38.72630962 154.35571196 -40 158 C-32.08 158.99 -24.16 159.98 -16 161 C-16 164.96 -16 168.92 -16 173 C-35.47 173 -54.94 173 -75 173 C-75 169.04 -75 165.08 -75 161 C-67.74 160.01 -60.48 159.02 -53 158 C-52.34 155.03 -51.68 152.06 -51 149 C-50.39812713 146.97834635 -49.76185411 144.96644472 -49.08325195 142.96923828 C-48.71080856 141.86578064 -48.33836517 140.762323 -47.95463562 139.62542725 C-47.55323868 138.45223938 -47.15184174 137.27905151 -46.73828125 136.0703125 C-46.31573563 134.82364807 -45.89319 133.57698364 -45.45783997 132.2925415 C-44.31818545 128.93130073 -43.17243559 125.57216862 -42.02524567 122.21349335 C-41.06713627 119.40603314 -40.11257741 116.5973707 -39.15789413 113.78874397 C-32.97654192 95.6069329 -26.71406491 77.45422769 -20.35644531 59.33325195 C-13.43677319 39.60149998 -6.71842893 19.80100307 0 0 Z M2 31 C1.6282666 32.12043701 1.2565332 33.24087402 0.87353516 34.39526367 C-0.87388978 39.66003675 -2.6240606 44.92389482 -4.375 50.1875 C-4.69035706 51.13584717 -5.00571411 52.08419434 -5.33062744 53.0612793 C-9.84252582 66.62195918 -14.41823679 80.15700204 -19.15380859 93.64135742 C-19.72349365 95.272948 -19.72349365 95.272948 -20.3046875 96.9375 C-20.7994458 98.34322266 -20.7994458 98.34322266 -21.30419922 99.77734375 C-22.09958415 101.92994002 -22.09958415 101.92994002 -22 104 C-5.83 104 10.34 104 27 104 C26.18865188 99.94325938 25.19335326 96.31533147 23.89868164 92.40551758 C23.58141365 91.44363777 23.58141365 91.44363777 23.25773621 90.46232605 C22.56170785 88.35533146 21.86121328 86.24985757 21.16015625 84.14453125 C20.67304281 82.67676175 20.18601919 81.20896243 19.69908142 79.74113464 C18.67985946 76.67151626 17.65817413 73.60273024 16.63500977 70.53442383 C15.32304271 66.59872655 14.01937384 62.66033484 12.71778202 58.72119617 C11.71559702 55.69244029 10.70798533 52.66551078 9.69882011 49.63907433 C9.2156568 48.18722137 8.73444326 46.73471806 8.25520515 45.28156471 C7.58604037 43.2545356 6.90936337 41.23016843 6.23071289 39.20629883 C5.84734268 38.05333817 5.46397247 36.9003775 5.06898499 35.71247864 C4.17075569 32.90502272 4.17075569 32.90502272 2 31 Z " fill="#909598" transform="translate(1853,66)"/>
<path d="M0 0 C1.58206057 0.00667536 3.16410534 0.0186375 4.74609375 0.03515625 C5.55240234 0.03966797 6.35871094 0.04417969 7.18945312 0.04882812 C9.18753131 0.06065107 11.18557158 0.07858711 13.18359375 0.09765625 C13.45642685 0.90069435 13.45642685 0.90069435 13.73477173 1.71995544 C21.81302258 25.49606878 29.89319255 49.27148191 38.01593018 73.03244019 C41.56155535 83.40476885 45.09707578 93.78046468 48.62109375 104.16015625 C49.00031982 105.27684692 49.3795459 106.3935376 49.77026367 107.54406738 C51.62287764 112.99964311 53.47445617 118.45556621 55.32421875 123.91210938 C59.20033331 135.3352685 63.13270968 146.73523332 67.18359375 158.09765625 C76.6681285 159.69772714 76.6681285 159.69772714 86.18359375 161.09765625 C86.18359375 165.05765625 86.18359375 169.01765625 86.18359375 173.09765625 C63.08359375 173.09765625 39.98359375 173.09765625 16.18359375 173.09765625 C16.18359375 169.13765625 16.18359375 165.17765625 16.18359375 161.09765625 C18.66195006 160.75707232 21.14099325 160.42509146 23.62109375 160.09765625 C24.65266602 159.95457031 24.65266602 159.95457031 25.70507812 159.80859375 C30.99438118 159.11975428 35.75033963 159.09765625 41.18359375 159.09765625 C36.56359375 145.56765625 31.94359375 132.03765625 27.18359375 118.09765625 C8.04359375 118.09765625 -11.09640625 118.09765625 -30.81640625 118.09765625 C-35.05122856 130.5129008 -35.05122856 130.5129008 -39.28295898 142.92919922 C-39.81352702 144.48278575 -40.34420013 146.03633641 -40.875 147.58984375 C-41.15057739 148.4001001 -41.42615479 149.21035645 -41.71008301 150.04516602 C-43.70233445 155.86951265 -43.70233445 155.86951265 -44.81640625 158.09765625 C-36.89640625 159.08765625 -28.97640625 160.07765625 -20.81640625 161.09765625 C-20.81640625 165.05765625 -20.81640625 169.01765625 -20.81640625 173.09765625 C-40.28640625 173.09765625 -59.75640625 173.09765625 -79.81640625 173.09765625 C-79.81640625 169.13765625 -79.81640625 165.17765625 -79.81640625 161.09765625 C-72.55640625 160.10765625 -65.29640625 159.11765625 -57.81640625 158.09765625 C-57.460625 156.69515625 -57.10484375 155.29265625 -56.73828125 153.84765625 C-54.26545053 144.7979028 -51.11418713 135.96577833 -48.06640625 127.09765625 C-47.3926631 125.1290421 -46.71908229 123.16037237 -46.0456543 121.19165039 C-41.33357466 107.43456593 -36.54744336 93.70385483 -31.73321533 79.98223877 C-27.57215514 68.11594735 -23.4888336 56.22456681 -19.4609375 44.3125 C-19.23200869 43.63568365 -19.00307987 42.9588673 -18.76721382 42.26154137 C-16.4765994 35.48840553 -14.18978419 28.71401057 -11.91181087 21.93661213 C-10.86374099 18.82036188 -9.81230183 15.70524747 -8.76171875 12.58984375 C-8.37703934 11.44100204 -7.99235992 10.29216034 -7.59602356 9.10850525 C-7.24352036 8.06449051 -6.89101715 7.02047577 -6.52783203 5.94482422 C-6.21999786 5.02861298 -5.9121637 4.11240173 -5.59500122 3.16842651 C-4.25943547 -0.38367689 -4.19457328 0.10733299 0 0 Z M-1.81640625 31.09765625 C-7.06390585 45.03467323 -11.89451208 59.08335398 -16.56640625 73.22265625 C-17.23148347 75.22795991 -17.89684697 77.23316865 -18.5625 79.23828125 C-20.02205733 83.63626918 -21.47896597 88.03512333 -22.93328857 92.43484497 C-24.22310869 96.3239615 -25.52068779 100.21050087 -26.81640625 104.09765625 C-10.31640625 104.09765625 6.18359375 104.09765625 23.18359375 104.09765625 C15.30806192 79.7210101 7.32695176 55.38589796 -0.81640625 31.09765625 C-1.14640625 31.09765625 -1.47640625 31.09765625 -1.81640625 31.09765625 Z " fill="#909598" transform="translate(1601.81640625,65.90234375)"/>
<path d="M0 0 C24.09 0 48.18 0 73 0 C73 3.63 73 7.26 73 11 C65.78889745 14.60555128 57.02914772 13.27007748 49 14 C49 61.52 49 109.04 49 158 C68.14 158 87.28 158 107 158 C107.99 151.565 107.99 151.565 109 145 C109.83778377 141.04718387 110.6982214 137.11822667 111.625 133.1875 C111.85445312 132.19685547 112.08390625 131.20621094 112.3203125 130.18554688 C112.87594714 127.78937249 113.43733819 125.39453403 114 123 C119.28 123 124.56 123 130 123 C130 139.34693311 128.95992497 155.68127559 128 172 C85.76 172 43.52 172 0 172 C0 168.04 0 164.08 0 160 C2.68693722 159.66148822 5.37440289 159.329064 8.0625 159 C9.19075195 158.85691406 9.19075195 158.85691406 10.34179688 158.7109375 C11.45844727 158.57558594 11.45844727 158.57558594 12.59765625 158.4375 C13.27320557 158.35371094 13.94875488 158.26992187 14.64477539 158.18359375 C17.75435073 157.94119708 20.88099136 158 24 158 C24 110.48 24 62.96 24 14 C16.74 13.34 9.48 12.68 2 12 C1.34 11.67 0.68 11.34 0 11 C0 7.37 0 3.74 0 0 Z " fill="#8F9497" transform="translate(1219,67)"/>
<path d="M0 0 C23.76 0 47.52 0 72 0 C72 3.63 72 7.26 72 11 C64.16410614 12.7543046 57.17611386 13.37106816 49 14 C49 61.52 49 109.04 49 158 C68.14 158 87.28 158 107 158 C107.33 154.7 107.66 151.4 108 148 C108.3469044 145.92937633 108.72673185 143.8636702 109.15625 141.80859375 C109.48302734 140.23948242 109.48302734 140.23948242 109.81640625 138.63867188 C110.04199219 137.58228516 110.26757812 136.52589844 110.5 135.4375 C110.72558594 134.34630859 110.95117188 133.25511719 111.18359375 132.13085938 C112.86811242 124.13188758 112.86811242 124.13188758 114 123 C116.69654854 122.92680379 119.36691458 122.90757463 122.0625 122.9375 C122.82111328 122.94201172 123.57972656 122.94652344 124.36132812 122.95117188 C126.24091871 122.9629932 128.12046899 122.98092922 130 123 C129.73844326 129.17494715 129.47178887 135.34964533 129.20043945 141.52416992 C129.10887281 143.62404435 129.01869145 145.72397967 128.92993164 147.82397461 C128.80199825 150.84506084 128.66905995 153.86589197 128.53515625 156.88671875 C128.49656998 157.82335861 128.4579837 158.75999847 128.41822815 159.72502136 C128.37826218 160.60555679 128.3382962 161.48609222 128.29711914 162.39331055 C128.26380997 163.16386276 128.23050079 163.93441498 128.19618225 164.72831726 C127.98482844 167.17567838 127.48175348 169.59123259 127 172 C85.09 172 43.18 172 0 172 C0 168.04 0 164.08 0 160 C2.70784994 159.66227261 5.41616996 159.32969313 8.125 159 C9.26582031 158.85691406 9.26582031 158.85691406 10.4296875 158.7109375 C11.55117187 158.57558594 11.55117187 158.57558594 12.6953125 158.4375 C13.37609863 158.35371094 14.05688477 158.26992187 14.75830078 158.18359375 C17.49704567 157.95929227 20.25208538 158 23 158 C23 110.48 23 62.96 23 14 C16.07 13.34 9.14 12.68 2 12 C1.34 11.67 0.68 11.34 0 11 C0 7.37 0 3.74 0 0 Z " fill="#8F9497" transform="translate(1376,67)"/>
<path d="M0 0 C24.09 0 48.18 0 73 0 C73 3.63 73 7.26 73 11 C65.78889745 14.60555128 57.02914772 13.27007748 49 14 C49 61.52 49 109.04 49 158 C54.28 158.33 59.56 158.66 65 159 C67.67057267 159.30043943 70.34071002 159.61218688 73 160 C73 163.96 73 167.92 73 172 C48.91 172 24.82 172 0 172 C0 168.04 0 164.08 0 160 C2.68693722 159.66148822 5.37440289 159.329064 8.0625 159 C9.19075195 158.85691406 9.19075195 158.85691406 10.34179688 158.7109375 C11.45844727 158.57558594 11.45844727 158.57558594 12.59765625 158.4375 C13.27320557 158.35371094 13.94875488 158.26992187 14.64477539 158.18359375 C17.75435073 157.94119708 20.88099136 158 24 158 C24 110.48 24 62.96 24 14 C16.74 13.34 9.48 12.68 2 12 C1.34 11.67 0.68 11.34 0 11 C0 7.37 0 3.74 0 0 Z " fill="#81888C" transform="translate(1962,67)"/>
<path d="M0 0 C9.64388758 5.11376171 17.33977224 12.33977224 25 20 C24.78731671 24.65449209 22.31479587 27.82923725 19.625 31.4375 C19.18019287 32.04585693 18.73538574 32.65421387 18.27709961 33.28100586 C13.34431488 39.97949841 8.23090897 46.5324915 3 53 C2.349104 53.80969238 2.349104 53.80969238 1.68505859 54.63574219 C-3.79794804 61.41990609 -9.61005042 67.80319903 -15.75 74 C-16.67087402 74.93477173 -16.67087402 74.93477173 -17.61035156 75.88842773 C-29.62085018 87.8163744 -29.62085018 87.8163744 -36.9453125 88.06640625 C-40.64576144 87.84110216 -42.49507313 87.45034018 -45.3125 84.9375 C-54.83741184 68.3570979 -52.16034197 44.95090083 -48 27 C-44.5349353 15.22038052 -38.04164397 5.15878279 -28 -2 C-18.85171942 -6.47713568 -8.79008185 -4.25571686 0 0 Z " fill="#E8E6E4" transform="translate(51,4)"/>
<path d="M0 0 C12.84465474 7.29449528 15.42462462 17.64037572 19.21484375 31.2578125 C19.70210937 32.98644531 19.70210937 32.98644531 20.19921875 34.75 C24.09316182 50.95027257 25.35898524 71.64293203 16.9140625 86.5546875 C15.21484375 88.2578125 15.21484375 88.2578125 12.69140625 88.75390625 C2.92211807 88.55316745 2.92211807 88.55316745 -0.78515625 85.2578125 C-1.8511685 84.06454668 -2.90290704 82.85847371 -3.9453125 81.64453125 C-7.67947449 77.34661251 -11.55421071 73.19989152 -15.47265625 69.0703125 C-20.31258283 63.94929315 -25.13975198 58.81870622 -29.91015625 53.6328125 C-34.35280297 48.8056104 -38.81180225 43.99408586 -43.28515625 39.1953125 C-43.87312988 38.56351074 -44.46110352 37.93170898 -45.06689453 37.28076172 C-45.6236084 36.68408691 -46.18032227 36.08741211 -46.75390625 35.47265625 C-47.27621826 34.91215576 -47.79853027 34.35165527 -48.33666992 33.77416992 C-49.57812592 32.47454356 -50.87415872 31.22743496 -52.1796875 29.9921875 C-53.78515625 28.2578125 -53.78515625 28.2578125 -53.97265625 25.5703125 C-50.31131124 15.35708693 -39.88176888 5.01796131 -30.34765625 0.1953125 C-20.81348501 -4.10501193 -9.57091353 -4.55454454 0 0 Z " fill="#E5E4E1" transform="translate(291.78515625,9.7421875)"/>
<path d="M0 0 C5.23785143 0.49528906 8.52712242 1.79665367 12.328125 5.59765625 C17.31449261 13.53890836 16.8654464 22.15884187 15.015625 31.09765625 C10.11181916 48.75135728 -3.6220268 63.34613875 -15.984375 76.28515625 C-16.82742187 77.16945313 -17.67046875 78.05375 -18.5390625 78.96484375 C-24.13678398 84.70939071 -27.72532508 87.74357921 -35.984375 88.28515625 C-43.22170597 87.68976339 -48.2773205 84.57363124 -53.984375 80.28515625 C-54.73074219 79.76824219 -55.47710937 79.25132812 -56.24609375 78.71875 C-57.10654297 78.00912109 -57.10654297 78.00912109 -57.984375 77.28515625 C-57.984375 76.62515625 -57.984375 75.96515625 -57.984375 75.28515625 C-58.974375 74.95515625 -59.964375 74.62515625 -60.984375 74.28515625 C-63.31756772 70.9687452 -63.2831121 67.81595938 -63.296875 63.84765625 C-63.32201172 62.17896484 -63.32201172 62.17896484 -63.34765625 60.4765625 C-62.8388476 56.0067059 -61.65117732 53.65369332 -58.13842773 50.76953125 C-56.60192542 49.60377996 -55.06097123 48.44388273 -53.51660156 47.28857422 C-48.94886864 43.67472768 -44.94296525 39.49029385 -40.859375 35.34765625 C-39.57740234 34.0647168 -39.57740234 34.0647168 -38.26953125 32.75585938 C-33.30633156 27.75835185 -28.54558602 22.65100099 -23.984375 17.28515625 C-23.45118652 16.66310303 -22.91799805 16.0410498 -22.36865234 15.40014648 C-20.29798026 12.98266389 -18.23360585 10.55987653 -16.171875 8.13476562 C-15.67171875 7.54888672 -15.1715625 6.96300781 -14.65625 6.359375 C-14.2137793 5.83947998 -13.77130859 5.31958496 -13.31542969 4.78393555 C-8.9670081 -0.11242544 -6.58766023 -0.18299056 0 0 Z " fill="#9A9896" transform="translate(111.984375,114.71484375)"/>
<path d="M0 0 C6.18229274 1.62691914 9.91981925 5.35386628 14.53125 9.6875 C16.61122263 11.63582879 18.73534026 13.44495104 20.9375 15.25 C34.72717561 27.34718021 52.39724606 49.24610152 54.3203125 68.1484375 C53.91171305 73.0615968 52.22661729 76.35892504 49.875 80.625 C49.49601562 81.36234375 49.11703125 82.0996875 48.7265625 82.859375 C46.13830692 87.67353039 43.67955304 91.08272139 39 94 C29.33897311 93.98762993 20.3282337 85.11177348 13.69921875 78.8515625 C0.17755365 64.56673541 -6.50207452 47.72685332 -11 28.8125 C-11.85039446 25.57037112 -12.89764506 22.66951041 -14.125 19.5625 C-15.93256753 14.64455212 -17.14898734 10.2122244 -16 5 C-12.22589362 -1.37693837 -6.66393625 -0.83901947 0 0 Z " fill="#93928F" transform="translate(209,124)"/>
<path d="M0 0 C16.03771115 5.61220029 33.52408727 6.10593501 50.265625 4.421875 C53.13897772 4.16982652 55.99149792 4.01378312 58.875 3.9375 C59.75027344 3.91171875 60.62554687 3.8859375 61.52734375 3.859375 C64.47720589 4.26097698 65.8140086 5.12674812 67.9375 7.1875 C68.5 10.125 68.5 10.125 67.9375 13.1875 C64.62885834 16.15816213 60.97834406 18.52826298 57.25 20.9375 C41.28743383 31.30145722 41.28743383 31.30145722 31.9375 47.1875 C34.95926257 46.90373808 37.97966139 46.61075009 41 46.3125 C41.84755859 46.23386719 42.69511719 46.15523438 43.56835938 46.07421875 C48.59422139 45.56969206 53.11251335 44.66453673 57.9375 43.1875 C60.875 43.0625 60.875 43.0625 62.9375 43.1875 C63.9275 45.1675 63.9275 45.1675 64.9375 47.1875 C62.06221947 51.5004208 59.21589293 51.45691573 54.27734375 52.48828125 C35.32186135 55.76582114 4.66432974 60.05258787 -12.5 48.5546875 C-13.015625 48.10351562 -13.53125 47.65234375 -14.0625 47.1875 C-13.7325 45.5375 -13.4025 43.8875 -13.0625 42.1875 C-6.9272451 42.89435823 -0.9342471 43.93161845 5.11328125 45.16992188 C9.1086773 45.95431781 12.86700897 46.51966173 16.9375 46.1875 C19.20346537 44.39050719 19.20346537 44.39050719 18.94921875 41.91015625 C17.52395861 38.07461062 14.85483582 36.10870313 11.75 33.625 C10.47642753 32.5691732 9.20299415 31.51317861 7.9296875 30.45703125 C7.27194336 29.91900879 6.61419922 29.38098633 5.93652344 28.82666016 C2.72023658 26.18936778 -0.45477305 23.50482897 -3.625 20.8125 C-4.19565186 20.3373999 -4.76630371 19.8622998 -5.35424805 19.37280273 C-14.33351107 11.77292035 -14.33351107 11.77292035 -15.69140625 6.95703125 C-15.58388132 3.7882084 -15.46847702 1.68716402 -13.4375 -0.8125 C-8.6976312 -2.80823423 -4.61378441 -1.85803988 0 0 Z " fill="#66645F" transform="translate(136.0625,229.8125)"/>
<path d="M0 0 C3.90657979 2.19950291 5.98076247 5.4988434 8.171875 9.359375 C9.84694122 15.90736114 9.40157298 21.41029724 6.0625 27.32421875 C3.25158471 31.34893837 -0.45321095 33.76848935 -5.140625 35.046875 C-11.57834661 35.86240211 -16.91020202 35.03791514 -22.140625 31.046875 C-26.50225192 26.73818045 -27.48973251 22.45881734 -27.703125 16.421875 C-27.42167324 9.65921459 -25.65875718 6.37130471 -20.703125 1.796875 C-13.96341126 -2.80585633 -7.49827073 -3.08068487 0 0 Z " fill="#C7C4C0" transform="translate(1743.140625,206.953125)"/>
<path d="M0 0 C0 0.33 0 0.66 0 1 C-0.94875 1.28875 -1.8975 1.5775 -2.875 1.875 C-6.05211578 2.76825109 -6.05211578 2.76825109 -8 5 C-8.39764263 6.98821313 -8.73775349 8.98944339 -9 11 C-9.33 11 -9.66 11 -10 11 C-10.48541424 3.59743291 -10.48541424 3.59743291 -8.375 1 C-5.44617664 -0.23318878 -3.14711179 -0.2145758 0 0 Z " fill="#93886B" transform="translate(131,228)"/>
<path d="M0 0 C0.33 0 0.66 0 1 0 C1 6.27 1 12.54 1 19 C0.67 19 0.34 19 0 19 C0 12.73 0 6.46 0 0 Z " fill="#A06B2C" transform="translate(930,15)"/>
<path d="M0 0 C0.66 0 1.32 0 2 0 C1.3125 2.4375 1.3125 2.4375 0 5 C-2.625 5.8125 -2.625 5.8125 -5 6 C-4.67 5.34 -4.34 4.68 -4 4 C-3.34 4 -2.68 4 -2 4 C-2 3.34 -2 2.68 -2 2 C-1.34 2 -0.68 2 0 2 C0 1.34 0 0.68 0 0 Z " fill="#B98F4B" transform="translate(1238,55)"/>
<path d="M0 0 C0.33 0 0.66 0 1 0 C1 3.63 1 7.26 1 11 C0.67 11 0.34 11 0 11 C0 7.37 0 3.74 0 0 Z " fill="#D9C074" transform="translate(1057,92)"/>
<path d="M0 0 C0.93065133 2.60582371 1.14917407 3.64198224 0.0625 6.25 C-0.4634375 7.11625 -0.4634375 7.11625 -1 8 C-1.04241723 5.66705225 -1.04092937 3.33297433 -1 1 C-0.67 0.67 -0.34 0.34 0 0 Z " fill="#AE7F3E" transform="translate(1243,40)"/>
<path d="M0 0 C0.66 0 1.32 0 2 0 C0.25 4.875 0.25 4.875 -2 6 C-1.34 4.02 -0.68 2.04 0 0 Z " fill="#D6BC71" transform="translate(1184,171)"/>
<path d="M0 0 C2.31 0 4.62 0 7 0 C7 0.33 7 0.66 7 1 C4.69 1 2.38 1 0 1 C0 0.67 0 0.34 0 0 Z " fill="#C19B57" transform="translate(1085,247)"/>
<path d="M0 0 C2.31 0 4.62 0 7 0 C7 0.33 7 0.66 7 1 C4.69 1 2.38 1 0 1 C0 0.67 0 0.34 0 0 Z " fill="#CDAC63" transform="translate(1108,198)"/>
<path d="M0 0 C0.33 0 0.66 0 1 0 C1 2.31 1 4.62 1 7 C0.67 7 0.34 7 0 7 C0 4.69 0 2.38 0 0 Z " fill="#D2B56C" transform="translate(1192,152)"/>
<path d="M0 0 C1.98 0 3.96 0 6 0 C6 0.33 6 0.66 6 1 C4.02 1 2.04 1 0 1 C0 0.67 0 0.34 0 0 Z " fill="#C8A45C" transform="translate(1088,198)"/>
<path d="M0 0 C0.66 0 1.32 0 2 0 C1.34 1.32 0.68 2.64 0 4 C0 2.68 0 1.36 0 0 Z " fill="#DEC87A" transform="translate(1186,167)"/>
<path d="M0 0 C0.66 0 1.32 0 2 0 C1.34 1.32 0.68 2.64 0 4 C0 2.68 0 1.36 0 0 Z " fill="#E2CE7F" transform="translate(1188,163)"/>
<path d="M0 0 C0.66 0 1.32 0 2 0 C1.34 1.32 0.68 2.64 0 4 C0 2.68 0 1.36 0 0 Z " fill="#DDC679" transform="translate(1190,159)"/>
<path d="M0 0 C1.65 0 3.3 0 5 0 C5 0.33 5 0.66 5 1 C3.35 1 1.7 1 0 1 C0 0.67 0 0.34 0 0 Z " fill="#CCAC64" transform="translate(1103,246)"/>
<path d="M0 0 C1.65 0 3.3 0 5 0 C5 0.33 5 0.66 5 1 C3.35 1 1.7 1 0 1 C0 0.67 0 0.34 0 0 Z " fill="#CBAC64" transform="translate(1109,239)"/>
<path d="M0 0 C1.65 0 3.3 0 5 0 C5 0.33 5 0.66 5 1 C3.35 1 1.7 1 0 1 C0 0.67 0 0.34 0 0 Z " fill="#CCAD65" transform="translate(1033,78)"/>
<path d="M0 0 C1.65 0 3.3 0 5 0 C5 0.33 5 0.66 5 1 C3.35 1 1.7 1 0 1 C0 0.67 0 0.34 0 0 Z " fill="#A47133" transform="translate(941,54)"/>
<path d="M0 0 C0.33 0.66 0.66 1.32 1 2 C0.34 2.66 -0.32 3.32 -1 4 C-0.67 2.68 -0.34 1.36 0 0 Z " fill="#AD7E3D" transform="translate(1241,50)"/>
<path d="M0 0 C4 1 4 1 4 1 Z " fill="#CDAF66" transform="translate(1072,246)"/>
<path d="M0 0 C4 1 4 1 4 1 Z " fill="#CDAF65" transform="translate(1112,245)"/>
<path d="M0 0 C4 1 4 1 4 1 Z " fill="#D1B46A" transform="translate(1119,197)"/>
<path d="M0 0 C4 1 4 1 4 1 Z " fill="#C9A65E" transform="translate(1080,197)"/>
<path d="M0 0 C4 1 4 1 4 1 Z " fill="#C8A65F" transform="translate(1174,180)"/>
<path d="M0 0 C4 1 4 1 4 1 Z " fill="#D1B46B" transform="translate(1041,78)"/>
<path d="M0 0 C4 1 4 1 4 1 Z " fill="#AC7C3D" transform="translate(1226,60)"/>
<path d="M0 0 C1 4 1 4 1 4 Z " fill="#A26F30" transform="translate(1243,19)"/>
<path d="M0 0 C1 4 1 4 1 4 Z " fill="#A26E2F" transform="translate(1242,12)"/>
<path d="M0 0 C1 4 1 4 1 4 Z " fill="#9E682A" transform="translate(931,5)"/>
<path d="M0 0 C3 1 3 1 3 1 Z " fill="#CDAE65" transform="translate(1066,245)"/>
<path d="M0 0 C3 1 3 1 3 1 Z " fill="#CBAB63" transform="translate(1119,244)"/>
<path d="" fill="#BD9752" transform="translate(0,0)"/>
<path d="" fill="#A26F30" transform="translate(0,0)"/>
<path d="M0 0 C2 1 2 1 2 1 Z " fill="#C9A760" transform="translate(1062,244)"/>
<path d="M0 0 C2 1 2 1 2 1 Z " fill="#CBAB62" transform="translate(1124,243)"/>
<path d="M0 0 C2 1 2 1 2 1 Z " fill="#CFB067" transform="translate(1059,243)"/>
<path d="M0 0 C2 1 2 1 2 1 Z " fill="#CAAA63" transform="translate(1127,242)"/>
<path d="M0 0 C2 1 2 1 2 1 Z " fill="#C7A660" transform="translate(1056,242)"/>
<path d="M0 0 C2 1 2 1 2 1 Z " fill="#CAAA62" transform="translate(1054,241)"/>
<path d="M0 0 C2 1 2 1 2 1 Z " fill="#CCAC64" transform="translate(1117,238)"/>
<path d="M0 0 C2 1 2 1 2 1 Z " fill="#CDAE66" transform="translate(1121,237)"/>
<path d="M0 0 C2 1 2 1 2 1 Z " fill="#CEAF67" transform="translate(1124,236)"/>
<path d="" fill="#C8A862" transform="translate(0,0)"/>
<path d="" fill="#D0B26A" transform="translate(0,0)"/>
<path d="M0 0 C2 1 2 1 2 1 Z " fill="#D1B56C" transform="translate(1114,218)"/>
<path d="M0 0 C2 1 2 1 2 1 Z " fill="#D6BA71" transform="translate(1129,208)"/>
<path d="" fill="#D4B870" transform="translate(0,0)"/>
<path d="" fill="#D7BC70" transform="translate(0,0)"/>
<path d="M0 0 C2 1 2 1 2 1 Z " fill="#D0B068" transform="translate(1064,193)"/>
<path d="M0 0 C2 1 2 1 2 1 Z " fill="#D2B46B" transform="translate(1059,191)"/>
<path d="M0 0 C2 1 2 1 2 1 Z " fill="#CCAB65" transform="translate(1178,179)"/>
<path d="" fill="#C09C59" transform="translate(0,0)"/>
<path d="" fill="#BE9954" transform="translate(0,0)"/>
<path d="" fill="#B8904D" transform="translate(0,0)"/>
<path d="" fill="#C4A05C" transform="translate(0,0)"/>
<path d="" fill="#CAA862" transform="translate(0,0)"/>
<path d="" fill="#DBC379" transform="translate(0,0)"/>
<path d="" fill="#C7A45F" transform="translate(0,0)"/>
<path d="" fill="#C3A059" transform="translate(0,0)"/>
<path d="" fill="#DBC47A" transform="translate(0,0)"/>
<path d="M0 0 C2 1 2 1 2 1 Z " fill="#C19D58" transform="translate(982,130)"/>
<path d="" fill="#DBC277" transform="translate(0,0)"/>
<path d="" fill="#DAC175" transform="translate(0,0)"/>
<path d="" fill="#D9BF74" transform="translate(0,0)"/>
<path d="" fill="#D9C074" transform="translate(0,0)"/>
<path d="" fill="#D8BF72" transform="translate(0,0)"/>
<path d="M0 0 C2 1 2 1 2 1 Z " fill="#D1B469" transform="translate(1141,88)"/>
<path d="M0 0 C2 1 2 1 2 1 Z " fill="#CFB168" transform="translate(1137,87)"/>
<path d="M0 0 C2 1 2 1 2 1 Z " fill="#D1B56D" transform="translate(1049,80)"/>
<path d="M0 0 C2 1 2 1 2 1 Z " fill="#CCAD66" transform="translate(1047,79)"/>
<path d="M0 0 C2 1 2 1 2 1 Z " fill="#A67334" transform="translate(938,53)"/>
<path d="M0 0 C2 1 2 1 2 1 Z " fill="#A77637" transform="translate(949,52)"/>
<path d="" fill="#A26F30" transform="translate(0,0)"/>
<path d="" fill="#A06C2D" transform="translate(0,0)"/>
<path d="" fill="#A06B2D" transform="translate(0,0)"/>
<path d="" fill="#A06B2D" transform="translate(0,0)"/>
<path d="" fill="#C7A45D" transform="translate(0,0)"/>
<path d="" fill="#CEAF65" transform="translate(0,0)"/>
<path d="" fill="#C09C57" transform="translate(0,0)"/>
<path d="" fill="#C29F59" transform="translate(0,0)"/>
<path d="" fill="#C39F5A" transform="translate(0,0)"/>
<path d="" fill="#CEB166" transform="translate(0,0)"/>
<path d="" fill="#D3B76D" transform="translate(0,0)"/>
<path d="" fill="#CCAC65" transform="translate(0,0)"/>
<path d="" fill="#C8A760" transform="translate(0,0)"/>
<path d="" fill="#C8A662" transform="translate(0,0)"/>
<path d="" fill="#CAA860" transform="translate(0,0)"/>
<path d="" fill="#CAAA62" transform="translate(0,0)"/>
<path d="" fill="#CFB167" transform="translate(0,0)"/>
<path d="" fill="#D4B86C" transform="translate(0,0)"/>
<path d="" fill="#C5A45F" transform="translate(0,0)"/>
<path d="" fill="#DBC376" transform="translate(0,0)"/>
<path d="" fill="#C8A762" transform="translate(0,0)"/>
<path d="" fill="#C6A360" transform="translate(0,0)"/>
<path d="" fill="#CCAC66" transform="translate(0,0)"/>
<path d="" fill="#CAAA62" transform="translate(0,0)"/>
<path d="" fill="#D5B96D" transform="translate(0,0)"/>
<path d="" fill="#CCAD66" transform="translate(0,0)"/>
<path d="" fill="#DAC074" transform="translate(0,0)"/>
<path d="" fill="#CBAB65" transform="translate(0,0)"/>
<path d="" fill="#D5B96F" transform="translate(0,0)"/>
<path d="" fill="#CAAA65" transform="translate(0,0)"/>
<path d="" fill="#D6BB70" transform="translate(0,0)"/>
<path d="" fill="#CCAC67" transform="translate(0,0)"/>
<path d="" fill="#D9BF73" transform="translate(0,0)"/>
<path d="" fill="#CAA965" transform="translate(0,0)"/>
<path d="" fill="#D1B369" transform="translate(0,0)"/>
<path d="" fill="#CDAE67" transform="translate(0,0)"/>
<path d="" fill="#D1B46D" transform="translate(0,0)"/>
<path d="" fill="#D8BE73" transform="translate(0,0)"/>
<path d="" fill="#D8BE72" transform="translate(0,0)"/>
<path d="" fill="#DABF74" transform="translate(0,0)"/>
<path d="" fill="#DEC679" transform="translate(0,0)"/>
<path d="" fill="#E0C97B" transform="translate(0,0)"/>
<path d="" fill="#D9C074" transform="translate(0,0)"/>
<path d="" fill="#CFB16A" transform="translate(0,0)"/>
<path d="" fill="#D6BC71" transform="translate(0,0)"/>
<path d="" fill="#DDC377" transform="translate(0,0)"/>
<path d="" fill="#D6BB70" transform="translate(0,0)"/>
<path d="" fill="#D4B96E" transform="translate(0,0)"/>
<path d="" fill="#D2B76E" transform="translate(0,0)"/>
<path d="" fill="#D7BC72" transform="translate(0,0)"/>
<path d="" fill="#D0B067" transform="translate(0,0)"/>
<path d="" fill="#D5B86E" transform="translate(0,0)"/>
<path d="" fill="#D5B96F" transform="translate(0,0)"/>
<path d="" fill="#CEAF64" transform="translate(0,0)"/>
<path d="" fill="#BE9955" transform="translate(0,0)"/>
<path d="" fill="#C8A75F" transform="translate(0,0)"/>
<path d="" fill="#BF9855" transform="translate(0,0)"/>
<path d="" fill="#C7A65F" transform="translate(0,0)"/>
<path d="" fill="#D6BB70" transform="translate(0,0)"/>
<path d="" fill="#C6A55E" transform="translate(0,0)"/>
<path d="" fill="#CAAB64" transform="translate(0,0)"/>
<path d="" fill="#CDAF67" transform="translate(0,0)"/>
<path d="" fill="#D0B36A" transform="translate(0,0)"/>
<path d="" fill="#CBAB62" transform="translate(0,0)"/>
<path d="" fill="#D5B86E" transform="translate(0,0)"/>
<path d="" fill="#D7BC72" transform="translate(0,0)"/>
<path d="" fill="#D7BD71" transform="translate(0,0)"/>
<path d="" fill="#B08346" transform="translate(0,0)"/>
<path d="" fill="#D8BE72" transform="translate(0,0)"/>
<path d="" fill="#B08345" transform="translate(0,0)"/>
<path d="" fill="#D8BE73" transform="translate(0,0)"/>
<path d="" fill="#D8BE73" transform="translate(0,0)"/>
<path d="" fill="#AF8243" transform="translate(0,0)"/>
<path d="" fill="#D7BE72" transform="translate(0,0)"/>
<path d="" fill="#D7BC71" transform="translate(0,0)"/>
<path d="" fill="#D6BA71" transform="translate(0,0)"/>
<path d="" fill="#B48846" transform="translate(0,0)"/>
<path d="" fill="#D5B970" transform="translate(0,0)"/>
<path d="" fill="#BB9550" transform="translate(0,0)"/>
<path d="" fill="#D3B870" transform="translate(0,0)"/>
<path d="" fill="#D3B870" transform="translate(0,0)"/>
<path d="" fill="#D4B973" transform="translate(0,0)"/>
<path d="" fill="#E0C97B" transform="translate(0,0)"/>
<path d="" fill="#DDC578" transform="translate(0,0)"/>
<path d="" fill="#DBC276" transform="translate(0,0)"/>
<path d="" fill="#BC9451" transform="translate(0,0)"/>
<path d="" fill="#D9BF76" transform="translate(0,0)"/>
<path d="" fill="#BC9551" transform="translate(0,0)"/>
<path d="" fill="#DFC77A" transform="translate(0,0)"/>
<path d="" fill="#BC9551" transform="translate(0,0)"/>
<path d="" fill="#DBC579" transform="translate(0,0)"/>
<path d="" fill="#D9C17A" transform="translate(0,0)"/>
<path d="" fill="#BC9854" transform="translate(0,0)"/>
<path d="" fill="#DFC77A" transform="translate(0,0)"/>
<path d="" fill="#DDC57A" transform="translate(0,0)"/>
<path d="" fill="#C19D55" transform="translate(0,0)"/>
<path d="" fill="#BE9953" transform="translate(0,0)"/>
<path d="" fill="#BF9955" transform="translate(0,0)"/>
<path d="" fill="#DDC679" transform="translate(0,0)"/>
<path d="" fill="#BA934E" transform="translate(0,0)"/>
<path d="" fill="#C8A65F" transform="translate(0,0)"/>
<path d="" fill="#DAC37A" transform="translate(0,0)"/>
<path d="" fill="#B08445" transform="translate(0,0)"/>
<path d="" fill="#BF9A57" transform="translate(0,0)"/>
<path d="" fill="#DDC578" transform="translate(0,0)"/>
<path d="" fill="#C7A35C" transform="translate(0,0)"/>
<path d="" fill="#C19D5B" transform="translate(0,0)"/>
<path d="" fill="#DCC378" transform="translate(0,0)"/>
<path d="" fill="#C29F58" transform="translate(0,0)"/>
<path d="" fill="#D5BA6F" transform="translate(0,0)"/>
<path d="" fill="#DCC276" transform="translate(0,0)"/>
<path d="" fill="#C3A05A" transform="translate(0,0)"/>
<path d="" fill="#C39F59" transform="translate(0,0)"/>
<path d="" fill="#D9BF75" transform="translate(0,0)"/>
<path d="" fill="#CEB068" transform="translate(0,0)"/>
<path d="" fill="#D9BF75" transform="translate(0,0)"/>
<path d="" fill="#C5A763" transform="translate(0,0)"/>
<path d="" fill="#C4A35F" transform="translate(0,0)"/>
<path d="" fill="#D9BF73" transform="translate(0,0)"/>
<path d="" fill="#C4A05B" transform="translate(0,0)"/>
<path d="" fill="#C5A25B" transform="translate(0,0)"/>
<path d="" fill="#CBAA61" transform="translate(0,0)"/>
<path d="" fill="#D3B66B" transform="translate(0,0)"/>
<path d="" fill="#D7BD72" transform="translate(0,0)"/>
<path d="" fill="#CCAB67" transform="translate(0,0)"/>
<path d="" fill="#CBAC68" transform="translate(0,0)"/>
<path d="" fill="#C9A860" transform="translate(0,0)"/>
<path d="" fill="#CCAC68" transform="translate(0,0)"/>
<path d="" fill="#CFB167" transform="translate(0,0)"/>
<path d="" fill="#CBAD69" transform="translate(0,0)"/>
<path d="" fill="#D4B96F" transform="translate(0,0)"/>
<path d="" fill="#CAAC66" transform="translate(0,0)"/>
<path d="" fill="#DBC376" transform="translate(0,0)"/>
<path d="" fill="#CCAE69" transform="translate(0,0)"/>
<path d="" fill="#CCAD68" transform="translate(0,0)"/>
<path d="" fill="#B9914F" transform="translate(0,0)"/>
<path d="" fill="#CDAD69" transform="translate(0,0)"/>
<path d="" fill="#B99050" transform="translate(0,0)"/>
<path d="" fill="#B9924F" transform="translate(0,0)"/>
<path d="" fill="#D9C074" transform="translate(0,0)"/>
<path d="" fill="#BC9450" transform="translate(0,0)"/>
<path d="" fill="#D3B66D" transform="translate(0,0)"/>
<path d="" fill="#BD9752" transform="translate(0,0)"/>
<path d="" fill="#CDAE64" transform="translate(0,0)"/>
<path d="" fill="#C29F58" transform="translate(0,0)"/>
<path d="" fill="#C7A75F" transform="translate(0,0)"/>
<path d="" fill="#CCAC62" transform="translate(0,0)"/>
<path d="" fill="#C7A661" transform="translate(0,0)"/>
<path d="" fill="#D6BC6F" transform="translate(0,0)"/>
<path d="" fill="#CAAB65" transform="translate(0,0)"/>
<path d="" fill="#DDC579" transform="translate(0,0)"/>
<path d="" fill="#BB9453" transform="translate(0,0)"/>
<path d="" fill="#CFB167" transform="translate(0,0)"/>
<path d="" fill="#BC9452" transform="translate(0,0)"/>
<path d="" fill="#C8A75E" transform="translate(0,0)"/>
<path d="" fill="#BC9653" transform="translate(0,0)"/>
<path d="" fill="#CAA964" transform="translate(0,0)"/>
<path d="" fill="#BC9753" transform="translate(0,0)"/>
<path d="" fill="#C19C57" transform="translate(0,0)"/>
<path d="" fill="#CCAD64" transform="translate(0,0)"/>
<path d="" fill="#D5B86E" transform="translate(0,0)"/>
<path d="" fill="#D6BC72" transform="translate(0,0)"/>
<path d="" fill="#CFB16B" transform="translate(0,0)"/>
<path d="" fill="#BE9757" transform="translate(0,0)"/>
<path d="" fill="#D1B469" transform="translate(0,0)"/>
<path d="" fill="#BC9756" transform="translate(0,0)"/>
<path d="" fill="#D1B56B" transform="translate(0,0)"/>
<path d="" fill="#BE9753" transform="translate(0,0)"/>
<path d="" fill="#CBAD66" transform="translate(0,0)"/>
<path d="" fill="#C09D57" transform="translate(0,0)"/>
<path d="" fill="#CCAC65" transform="translate(0,0)"/>
<path d="" fill="#D6BC71" transform="translate(0,0)"/>
<path d="" fill="#A87736" transform="translate(0,0)"/>
<path d="" fill="#A67436" transform="translate(0,0)"/>
<path d="" fill="#A57335" transform="translate(0,0)"/>
<path d="" fill="#B78D4A" transform="translate(0,0)"/>
<path d="" fill="#B38745" transform="translate(0,0)"/>
<path d="" fill="#B08341" transform="translate(0,0)"/>
<path d="" fill="#A77535" transform="translate(0,0)"/>
<path d="" fill="#AC7E3D" transform="translate(0,0)"/>
<path d="" fill="#A36E30" transform="translate(0,0)"/>
<path d="" fill="#AA7A39" transform="translate(0,0)"/>
<path d="" fill="#A67434" transform="translate(0,0)"/>
<path d="" fill="#A26E2F" transform="translate(0,0)"/>
<path d="" fill="#A87736" transform="translate(0,0)"/>
<path d="" fill="#A57136" transform="translate(0,0)"/>
<path d="" fill="#A26E30" transform="translate(0,0)"/>
<path d="" fill="#A77535" transform="translate(0,0)"/>
<path d="" fill="#A67333" transform="translate(0,0)"/>
<path d="" fill="#A67535" transform="translate(0,0)"/>
<path d="" fill="#AF803F" transform="translate(0,0)"/>
<path d="" fill="#A47031" transform="translate(0,0)"/>
<path d="" fill="#A57437" transform="translate(0,0)"/>
<path d="" fill="#A57138" transform="translate(0,0)"/>
<path d="" fill="#A67638" transform="translate(0,0)"/>
<path d="" fill="#A47133" transform="translate(0,0)"/>
<path d="" fill="#A36F30" transform="translate(0,0)"/>
<path d="" fill="#A6763A" transform="translate(0,0)"/>
<path d="" fill="#A67333" transform="translate(0,0)"/>
<path d="" fill="#A6773C" transform="translate(0,0)"/>
<path d="" fill="#A87736" transform="translate(0,0)"/>
<path d="" fill="#A6773B" transform="translate(0,0)"/>
<path d="" fill="#AB7B3A" transform="translate(0,0)"/>
<path d="" fill="#AC7D3D" transform="translate(0,0)"/>
<path d="" fill="#B88E4A" transform="translate(0,0)"/>
<path d="" fill="#AE803F" transform="translate(0,0)"/>
<path d="" fill="#B48946" transform="translate(0,0)"/>
<path d="" fill="#B08241" transform="translate(0,0)"/>
<path d="" fill="#B18442" transform="translate(0,0)"/>
<path d="" fill="#B28543" transform="translate(0,0)"/>
<path d="" fill="#AE7F3E" transform="translate(0,0)"/>
<path d="" fill="#B18442" transform="translate(0,0)"/>
<path d="" fill="#AB7B3A" transform="translate(0,0)"/>
<path d="" fill="#AF8140" transform="translate(0,0)"/>
<path d="" fill="#A97737" transform="translate(0,0)"/>
<path d="" fill="#AD7F3C" transform="translate(0,0)"/>
<path d="" fill="#A77636" transform="translate(0,0)"/>
<path d="" fill="#AB7C3A" transform="translate(0,0)"/>
<path d="" fill="#A67636" transform="translate(0,0)"/>
<path d="" fill="#AA7A39" transform="translate(0,0)"/>
<path d="" fill="#A67638" transform="translate(0,0)"/>
<path d="" fill="#A87837" transform="translate(0,0)"/>
<path d="" fill="#A67739" transform="translate(0,0)"/>
<path d="" fill="#A67333" transform="translate(0,0)"/>
<path d="" fill="#A7783B" transform="translate(0,0)"/>
<path d="" fill="#A47133" transform="translate(0,0)"/>
<path d="" fill="#A97B3E" transform="translate(0,0)"/>
<path d="" fill="#A47234" transform="translate(0,0)"/>
<path d="" fill="#A87B3E" transform="translate(0,0)"/>
<path d="" fill="#A57437" transform="translate(0,0)"/>
<path d="" fill="#A57339" transform="translate(0,0)"/>
<path d="" fill="#B48946" transform="translate(0,0)"/>
<path d="" fill="#AD7E3D" transform="translate(0,0)"/>
<path d="" fill="#B08441" transform="translate(0,0)"/>
<path d="" fill="#A87736" transform="translate(0,0)"/>
<path d="" fill="#AD7F3E" transform="translate(0,0)"/>
<path d="" fill="#A57232" transform="translate(0,0)"/>
<path d="" fill="#AB7B3A" transform="translate(0,0)"/>
<path d="" fill="#A47234" transform="translate(0,0)"/>
<path d="" fill="#A97838" transform="translate(0,0)"/>
<path d="" fill="#A57439" transform="translate(0,0)"/>
<path d="" fill="#A77636" transform="translate(0,0)"/>
<path d="" fill="#A77737" transform="translate(0,0)"/>
<path d="" fill="#AD7E3E" transform="translate(0,0)"/>
<path d="" fill="#A87739" transform="translate(0,0)"/>
<path d="" fill="#A77535" transform="translate(0,0)"/>
<path d="" fill="#A87838" transform="translate(0,0)"/>
<path d="" fill="#A47132" transform="translate(0,0)"/>
<path d="" fill="#A97A3C" transform="translate(0,0)"/>
<path d="" fill="#A47337" transform="translate(0,0)"/>
<path d="" fill="#AA7B3E" transform="translate(0,0)"/>
<path d="" fill="#AB7D40" transform="translate(0,0)"/>
<path d="" fill="#AE7F3E" transform="translate(0,0)"/>
<path d="" fill="#A77535" transform="translate(0,0)"/>
<path d="" fill="#A47233" transform="translate(0,0)"/>
<path d="" fill="#B48845" transform="translate(0,0)"/>
<path d="" fill="#A57339" transform="translate(0,0)"/>
<path d="" fill="#B08240" transform="translate(0,0)"/>
<path d="" fill="#AD7E3D" transform="translate(0,0)"/>
<path d="" fill="#AA7938" transform="translate(0,0)"/>
<path d="" fill="#AA7938" transform="translate(0,0)"/>
<path d="" fill="#A47131" transform="translate(0,0)"/>
<path d="" fill="#A87737" transform="translate(0,0)"/>
<path d="" fill="#A47336" transform="translate(0,0)"/>
<path d="" fill="#A67636" transform="translate(0,0)"/>
<path d="" fill="#A77638" transform="translate(0,0)"/>
<path d="" fill="#A97837" transform="translate(0,0)"/>
<path d="" fill="#A87739" transform="translate(0,0)"/>
<path d="" fill="#A47032" transform="translate(0,0)"/>
<path d="" fill="#A97A3B" transform="translate(0,0)"/>
<path d="" fill="#A47336" transform="translate(0,0)"/>
<path d="" fill="#AA7B3E" transform="translate(0,0)"/>
<path d="" fill="#AB7C3F" transform="translate(0,0)"/>
<path d="" fill="#A87736" transform="translate(0,0)"/>
<path d="" fill="#AC7E40" transform="translate(0,0)"/>
<path d="" fill="#A47031" transform="translate(0,0)"/>
<path d="" fill="#AD7E42" transform="translate(0,0)"/>
<path d="" fill="#A57237" transform="translate(0,0)"/>
<path d="" fill="#9D6728" transform="translate(0,0)"/>
</svg>
