<?xml version="1.0" standalone="no"?><!DOCTYPE svg PUBLIC "-//W3C//DTD SVG 1.1//EN" "http://www.w3.org/Graphics/SVG/1.1/DTD/svg11.dtd"><svg t="1718351645393" class="icon" viewBox="0 0 1024 1024" version="1.1" xmlns="http://www.w3.org/2000/svg" p-id="2457" xmlns:xlink="http://www.w3.org/1999/xlink" width="200" height="200"><path d="M512 512m-512 0a512 512 0 1 0 1024 0 512 512 0 1 0-1024 0Z" fill="#57A981" p-id="2458"></path><path d="M809.96 448.847a173.435 173.435 0 0 0-14.953-142.283 175.203 175.203 0 0 0-188.649-84.037 175.753 175.753 0 0 0-297.752 62.854 173.435 173.435 0 0 0-115.855 84.037 175.203 175.203 0 0 0 21.53 205.659 173.29 173.29 0 0 0 14.78 142.312 175.348 175.348 0 0 0 188.793 84.037 173.435 173.435 0 0 0 130.663 58.304A175.493 175.493 0 0 0 715.78 737.848a173.58 173.58 0 0 0 115.826-84.037 175.493 175.493 0 0 0-21.646-204.964zM548.517 814.235a129.707 129.707 0 0 1-83.341-30.138l4.086-2.347 138.487-79.922a23.038 23.038 0 0 0 11.36-19.734V486.867l58.536 33.846a2.057 2.057 0 0 1 1.1 1.507v161.786a130.518 130.518 0 0 1-130.228 130.229zM268.587 694.67a129.533 129.533 0 0 1-15.503-87.34l4.115 2.463 138.603 79.95a22.342 22.342 0 0 0 22.603 0l169.32-97.627v67.577a2.318 2.318 0 0 1-0.956 1.797l-140.255 80.878a130.402 130.402 0 0 1-177.927-47.698z m-36.513-301.606a129.968 129.968 0 0 1 68.563-57.174V500.4a22.197 22.197 0 0 0 11.244 19.589l168.508 97.222-58.536 33.847a2.202 2.202 0 0 1-2.057 0L279.83 570.324a130.518 130.518 0 0 1-47.757-177.955v0.695z m480.953 111.711l-169.03-98.15 58.391-33.73a2.202 2.202 0 0 1 2.058 0l139.965 80.879a130.228 130.228 0 0 1-19.59 234.869v-164.54a22.893 22.893 0 0 0-11.794-19.328z m58.247-87.601l-4.086-2.463-138.343-80.618a22.487 22.487 0 0 0-22.748 0l-169.175 97.628v-67.606a1.913 1.913 0 0 1 0.811-1.768L577.7 281.585a130.402 130.402 0 0 1 193.575 135.038v0.551zM404.988 536.999l-58.536-33.73a2.318 2.318 0 0 1-1.101-1.652V340.295a130.402 130.402 0 0 1 213.715-100.062l-4.115 2.318-138.459 79.922a23.038 23.038 0 0 0-11.388 19.734L404.988 537z m31.79-68.533l75.4-43.468 75.547 43.468v86.905l-75.257 43.468-75.546-43.468-0.145-86.905z" fill="#FFFFFF" p-id="2459"></path></svg>